<?xml version="1.0" encoding="utf-8"?>
<!-- Generator: Adobe Illustrator 22.0.0, SVG Export Plug-In . SVG Version: 6.00 Build 0)  -->
<svg version="1.1" id="Capa_1" xmlns="http://www.w3.org/2000/svg" xmlns:xlink="http://www.w3.org/1999/xlink" x="0px" y="0px"
	 viewBox="0 0 1366 768" style="enable-background:new 0 0 1366 768;" xml:space="preserve">
<style type="text/css">
	.st0{fill:#5B822F;}
</style>
<g>
	<polygon class="st0" points="164,157.4 162.9,162.7 159.7,166.3 160.3,171.1 164.8,174.9 164.8,176.4 168.2,179 170.8,190.3 
		173.4,188.9 173.8,186.2 173.1,183.6 176.8,181.1 178.3,179.1 180.9,177.3 181,172.4 179,171.4 177.5,168.4 174.7,168.3 
		173.6,164.8 177,161.6 177.5,156 175.6,154.4 175.5,151.4 178,148.2 177.6,146.9 173.2,149.3 173.3,146 169.6,145.3 164,147.9 
		163,151.2 	"/>
	<polygon class="st0" points="367.7,460.1 367.6,460.3 367.5,460.6 367.2,460.6 367,460.6 366.6,460.6 367.4,461.1 367.9,461.6 
		368.1,461.8 368.2,461.6 368.3,460.9 368,460 	"/>
	<polygon class="st0" points="362,457.1 362.1,455.7 361.9,455.5 361.6,455.5 361.5,455.6 361.4,455.9 361.1,457.9 361.5,458.5 
		361.8,458.6 362.4,458.9 362.6,458.6 362.4,457.9 	"/>
	<polygon class="st0" points="363.7,461.1 363.3,461.1 363.3,461.3 363.4,461.7 364.5,461.9 364.1,461.5 	"/>
	<polygon class="st0" points="438.4,511 438,510.3 437.5,510.4 437.2,510.8 437,511.3 436.5,511.6 436.4,511.9 436.2,512.6 
		436.1,513 435.9,513.1 435.9,513.3 436.2,513.6 437,513.7 437.7,513.5 438,513.2 438.2,512.8 438.5,512.5 438.6,511.8 	"/>
	<polygon class="st0" points="156.9,380.6 156.4,381 156.1,381.4 156.1,381.7 156.2,382.4 156.3,382.7 156.6,382.9 157.1,382.4 
		157.6,381.6 157.6,381.1 157.3,380.6 	"/>
	<polygon class="st0" points="161.4,372.4 161.2,372.5 160.9,373 161,373.2 161.2,373.4 161.4,373.2 161.6,372.8 161.6,372.6 
		161.5,372.5 	"/>
	<polygon class="st0" points="430.6,412.5 430.8,412.8 431.1,413 431.2,413.4 431.5,413.6 431.5,413 431,412.2 	"/>
	<polygon class="st0" points="426.5,516.2 426.1,516 425.3,515.9 424.6,516.2 424.2,516.8 424,517.1 424.4,518.2 424.6,518.5 
		425.7,519.1 426.2,519.1 427,518.9 427.2,518.5 427.3,517.7 426.9,516.9 	"/>
	<polygon class="st0" points="371.5,464 371.3,463.7 371,464 371.3,464.5 371.2,464.8 371.1,465.2 371.2,465.6 371.4,465.8 
		371.7,465.7 371.7,465.4 371.9,464.9 371.9,464.8 372,464.3 371.7,464 	"/>
	<path class="st0" d="M405.1,306.7H403l-2.6,2.2l-2.9,0.6l-2.5,0.9l-1.8,0.2l-3.2,0.2l-1.9,1.1l-2.8,0.5l-4.8,1.9l-6.1,0.8l-5.2,1.6
		l-2.8,0l-2.6-2.7l-1.2-2.6l-1.8-1.2v0l-2.5-1.7l3.1-1.5l0.1-2.7l-1.4-1.9l0,0l-2.8-1.9l-1.9-2.2l-3.2-3.7L349,291l-7.9-6l-3.2-3.1
		l-1.8-5.9l-3.7-7.3l-2.6,3.6l2.6-3.6l-3.1-2.4l-2.2-1.6l-2.5-7.6l-1.1-6.5l1.1-1.2l-2.1-6.2h0l-1-1.3l-6.8-5.7l-0.4-4.2l1-1.1
		l-5.3-7l-2-3.6l-2.3-3.5l-4.8-9.9l-3.9-6.4l-2.8-6.7l0.5-0.6l4.6,9.1l2.7,2.9l2,2l1.2-1.1l1.2-3.3l0.7-4.8l1.3-2.5l-0.7-1.7
		l-3.9-9.2l-2.5,1.6l-4.2-0.4l-4.4-1.5l-1.1,2.1l-1.7-3.2l-3.9-0.8l-4.7,0.6l-2.1,1.8l-3.9,2l-2.6-1l-5.5-1.9l-5.3-1.7l-7.1,0.2
		l-1.5-2.1l-5.4-0.8l-1.8-1.1h-2l-2-2.8l-7.3-1.3l-3.6,0.8l-3.7,3l-1.5,3.1l1.5,4.8l-2.4,3l-2.5,1.6l-5.9-3.1l-7.7-2.7l-4.9-1.2
		l-2.8-5.7l-7.2-2.8l-4.5-1.1l-2.2,0.6l-6.4-2.2l-0.1,4.9l-2.6,1.8l-1.5,2l-3.7,2.5l0.7,2.6l-0.4,2.7l-2.6,1.4l1.9,5.6l0.4,3
		l-0.9,5.2l0.5,2.9l-0.6,3.5l0.5,4l-2.1,2.6l3.4,4.7l0.2,2.7l2,3.6l0,0l-2-3.6l-0.2-2.7l-3.4-4.7l2.1-2.6l-0.5-4l0.6-3.5l-0.5-2.9
		l0.9-5.2l-0.4-3l-1.9-5.6l-2.6-11.3l-3.4-2.6v-1.5l-4.5-3.8l-0.6-4.8l3.2-3.6l1.1-5.3l-1-6.2l1-3.3l-3.6,0.4l-2.2-1.5h-5.6
		l-4.9,2.6l-2.7-1l-8.7,0.5l-8.9,1.2l-5,2l-3.4,2.6l-5.7,1.2l-5.1,3.5l0,0l-2.3-0.1l-5.5-1.4l-5,0.4l-3.1-2.7h-3.9l-1.8,3.9
		l-3.7,6.7l-4,2.6l-5.4,2.9L70,176l-0.9,3.4l-2.1,5.4l1.1,7.9l-4.7,5.3l-2.7,1.7l-4.4,4.4l-5.1,0.7l-2.8,2.4l-0.1,0.1l-3.6,6.5
		l-3.7,2.3l-2.1,4l-0.2,3.3l-1.6,3.8l-1.9,1l-3.1,4l-2,4.5l0.3,2.2l-1.9,3.3l-2.2,1.7l-0.3,3l-0.3,2.7l2.8,2.7l1.4,3l-0.7,3.2
		l0.6,3.2l0.5,6.3l-0.8,5.9l-1.7,3.2l0.4,3.4l2-2h0l-2,2l-1.3,3.3l-2.8,4.4l-2.5,1.2l2.7,2.3l2.2,5l6.1-0.2l1.3-1.5l1.8-0.1l2.1,1.5
		l1.8,0.1l1.8-1.1l0,0l-1.8,1.1l-1.8-0.1l-2.1-1.5l-1.8,0.1l-1.3,1.5l-6.1,0.2l-0.7,2.8h0l0.8,4.9l3-1.1l1.8,0.2l1.5-0.7l10.3,0.3
		l2.7,0.1l4,1.5l1.3-0.1l0.4-0.7l3,0.5l0.8-0.4l0.3-2l-0.4-2.4l-2.1-1.8l-1.1-3.7l-0.2-3.9l0,0l1.9-1.2l1-3.7l1.8-0.2l0,0l-1.8,0.2
		l-1,3.7l-1.9,1.2l0.2,3.9l1.1,3.7l2.1,1.8l0.4,2.4l-0.3,2l0.3,2.3h0l-0.3-2.3l-0.8,0.4l-3-0.5l-0.4,0.7l-1.3,0.1l-4-1.5l-2.7-0.1
		l-0.1,2.1l-0.6,0.7v0l0.6-0.7l0.1-2.1l-10.3-0.3l-1.5,0.7l-1.8-0.2l-3,1.1l0.3,1.3l1.7,1.4v0.9l1.2,1.8l2.4,0.5l2.9,2.6l2.6-3.1
		l1.7,0.1l1.4-1h1.3l0.8-0.9l-0.8,0.9h-1.3l-1.4,1l-1.7-0.1l-2.6,3.1l1.6,1.1l0.8,1.4l0.7,2.8l1.3,1.2l1.5,0.9l2.1,2.5l2.4,3.7l0,0
		l0.7,4.7l0.9,2.3L50,337l4.1,2.5l1.5,0.5l1.3-2l0.3-1.9l2.6-3.4l2.6-3l1.2-0.2l1.5-0.7v0l-1.5,0.7l-1.2,0.2l-2.6,3l-2.6,3.4
		l-0.3,1.9l-1.3,2l3.7,4.1l4.8,3.5l5.1,4.8l5.7,3.1l1.5-0.1l0,0l1.1,0.2l5.6-2.4l3.9-1.8l6.6-1.1l3.6-0.1l3.9,1.3l2.6-0.1l0.2-2.5
		l-2.4-5.5l1.5-7.2l2.3-5.3l-1.4-9.1l-3.8-1.6h0l3.8,1.6v0l1.4,9.1l-2.3,5.3l-1.5,7.2l2.4,5.5l-0.2,2.5l5,1.8l5-1.9l3.2-2.1l8.7-3.8
		v0l4.6-1.3l0,0l4.6-0.8l0.3-10.2L135,329l0.1,4.1l-0.3,10.2h4.9h4.3l3.9,4.2l1.9,4.6l3,3.9l4.5,0.2l2.2-1.4l2.1,0.3l5.8-2.3
		l1.4-4.5l2.7-6.1h0l-2.7,6.1l-1.4,4.5v1.8l1.4,0.9l1.1,2.8l2.6,1.1l2.2,4.2l-0.8,5l9.2,0.2l2.6-0.4l3.4,0.8l3.4-0.8l0.7,0.3
		l7.1,0.3l4.5,1.7l4.5,1.5v0l-4.5-1.5l-4.5-1.7l-7.1-0.3l0,0.1l0-0.1l-0.7-0.3l-3.4,0.8l-3.4-0.8l-2.6,0.4v0l-9.2-0.2l-1.9,7.2
		l1,0.9l-1.1,4.8l-1.3,4.6l-1.3,2l-0.2,2.1l3.4,6.6l3.7,5.3l5.8,6.4l0,0l4.6,6.7l2.2-2.7l1.8-1.1l0,0l-1.8,1.1l-2.2,2.7l1.4,4.8
		l1.5-0.7l0.2-2.7l0.9-1.7l2-1.3l0,0l-2,1.3l-0.9,1.7l-0.2,2.7L188,420l0.8,2l0,0l-0.5,1.2l2.8,4l1.1,4.3l1.6,6.1l-1.7,2.6l-0.3,1.3
		l1.3,3.8l1.5,3.9l1.6,2.2l0.3,3.6l-0.7,4.8l-1.8,2.8l-3.3,4.2l-1.3,2.6l-1.9,5.7l-0.3,2.7l-2,5.9l-0.9,5.5l0.5,4l2.7-1.2l3.3-1h0
		l-3.3,1l-2.7,1.2l0.2,4.9l4.4,6.2l1.1,4l2.8,7.7l2.7,5.2l2.1,2.6l0.6,3.5v7.6l1.6,9.8l1.2,4.6l1,6.2l1.9,4.7l3.9,4.8l2.7-3.2
		l2.1,1.8l0,0l-2.1-1.8l-2.7,3.2l3.5,8.2v0.1l2.5,5.3l3.2,6l-0.2,4.8l-1.7,1.2l1.4,4.2l-0.2,3.8l0.6,1.7l0.3-0.9l2.1,2.9l1.8,0.1
		l2.1,2.3l2.4-0.2l3.5-2.4l4.6-1l5.6-2.5l2.2,0.3l3.3-0.8l5.7,1.2l2.7-1.2l3.2,1l0.8-1.8l2.7-0.3l5.8-2.5l4.3-2.9l4.1-3.8l6.7-6.5
		l3.4-4.6l1.8-3.2l2.5-3.3l1.2-0.9l3.9-3.2l1.6-2.9l1.1-5.2l1.7-4.7h-4.1v0h4.1l0.7-3.3l-1.4-0.5l-0.3-2.6l2.6-2.4l6.8-3.4l4.6-2.2
		l2.5-2.3l0.9-2.6l-1.2-1.1l1.1-3l0.5-6.2l-1,0.3v-1.9l-0.8-3.7l-2.4-4.8l0.7-4.6l2.3-1.4l4.1-4.6l2.2-1.1l6.7-6.8l6.4-3.1l5.2-2.5
		l3.7-3.9l2.4-4.4l1.9-4.6l-0.9-3.1l0.2-9.9l-0.4-5.6l0.4-6.3l-0.8-2.9l0,0l-2-1.4l-2.2-6.3l-1.8-3.9l0.4-3.1l-0.3-1.9l1.7-3.9
		l-0.2-1.6l-3.5-2.3l-0.3-3.6l2.8-7.9l0,0l2.2-2.1l1.2-4.2l1.8-2.6l0.9-4.5l2.1-0.4l1.4-2.7l4-2.5l-3.3-5.3l-0.2-23.2l2.9-4.3
		l-2.9,4.3l0.2,23.2l3.3,5.3l1.3-1.5l1.3-3.4l6.1-7.7l5.3-4.8l8.3-6.4l5.6-5.1l6.4-8.7l4.7-7.1l4.6-9.3l3.2-8.2l2.5-7.1l1.3-6.8
		l1.1-2.3l-0.2-3.4l0.4-3.7L405.1,306.7z M382.7,332.3l4.8-0.1l0,0L382.7,332.3l-18.5-7.6l0,0L382.7,332.3z M357.5,312.5l-1.3,0.5h0
		L357.5,312.5L357.5,312.5z M358.8,313.6L358.8,313.6l1.5-2.6L358.8,313.6z M337.3,289.4L337.3,289.4l-3.2,1.5l0,0L337.3,289.4z
		 M323.8,279.5l-1.9,9.4l0.7,2.5l-0.7,5.5l-2.1,6.2l-3.2,3.2l-2.3,4.8l-0.5,2.6l-2.6,1.8l-1.4,6.7v0.7v0l-0.2,0l0.2,0v-0.7l1.4-6.7
		l2.6-1.8l0.5-2.6l2.3-4.8l3.2-3.2l2.1-6.2l0.7-5.5l-0.7-2.5L323.8,279.5z M305.7,444.7l1.2,5.4l-1,1.8l-1.2,5.1l0.9,5.3l-1.8,2.2
		l-1.9,5.9l2.9,1.7l0,0l0,0l-2.9-1.7l1.9-5.9l1.8-2.2l-0.9-5.3l1.2-5.1l1-1.8L305.7,444.7l-2.6-2.8l-3.2-1.9l-3.5-1.1l-2.2-1.1l0,0
		l0,0l0,0l2.2,1.1l3.5,1.1l3.2,1.9l5.4,1.2l1.1,1.7l0.4-1.2l-0.6,1.9l0,0l0,0l0.2-0.7l-1.1-1.7l-5.4-1.2L305.7,444.7z M288,481.8
		l0.3,2.4h0L288,481.8L288,481.8l-0.3-4.5l0,0L288,481.8z M194.1,414.2L194.1,414.2l1.9-2.4h0L194.1,414.2z M201.3,237.7l-3.9,2.4
		l0,0L201.3,237.7L201.3,237.7z M203.1,319.6l3.1,0.1l0,0L203.1,319.6l-1.6,0.4l-2.5-0.6l0,0l2.5,0.6L203.1,319.6z M292.9,394
		l-0.4,3.7l0,0L292.9,394l-2.3-3.6l-3.3,1.9l-1.4-0.6l0,0l1.4,0.6l3.3-1.9l2-0.8l5.9,0.1v0l-5.9-0.1l-2,0.8L292.9,394z M276.9,461.2
		l-4.3-0.8l-1.2-3.4l0,0l1.2,3.4L276.9,461.2l2,2.8l2.1,3.5h0l-2.1-3.5L276.9,461.2z M234.7,429.6L234.7,429.6l0.5-2.3h0
		L234.7,429.6z M241.5,429.6v4l1.2,2.4l-0.9,3.8l0.3,4l1.9,2.3l-0.5,7.6l0,0l0.5-7.6l-1.9-2.3l-0.3-4l0.9-3.8l-1.2-2.4L241.5,429.6
		L241.5,429.6z M241.3,485.5L241.3,485.5l0.8-20.3l11.6,0.1v0l-11.6-0.1L241.3,485.5z M254.1,460.7l-0.9,2.4v0L254.1,460.7
		L254.1,460.7z M253.9,454.7l-0.7,3l0,0L253.9,454.7L253.9,454.7z M255.3,452.8L255.3,452.8l0.3,2h0L255.3,452.8z M253.4,452.7
		L253.4,452.7L253.4,452.7L253.4,452.7z M250.5,353.8l-2.6-0.6l-0.8,0.5l-1.6,3.8l-4.2-1.2l-4.1-0.6l0,0l4.1,0.6l4.2,1.2l1.6-3.8
		l0.8-0.5L250.5,353.8l6.2-3.1l0,0L250.5,353.8z M242.1,303.1l2-0.4v0L242.1,303.1L242.1,303.1z M300.2,308.8l-1.4-1.8h0
		L300.2,308.8l0.6,3.9l-3,3.5l-2.7,4.5l-2.8,0.7l0,0l2.8-0.7l2.7-4.5l3-3.5L300.2,308.8z M290.9,398.5l0.3,2.5l1.2,1.5v2l-1.4,1.4
		l-2.2,3.3l-2.1,2.3l-0.5,0.1l0,0l0.5-0.1l2.1-2.3l2.2-3.3l1.4-1.4v-2l-1.2-1.5L290.9,398.5L290.9,398.5z M286.2,411.3L286.2,411.3
		L286.2,411.3L286.2,411.3z M283.4,355.2L283.4,355.2l3.1-1.3l0,0L283.4,355.2z M279.3,355.9L279.3,355.9l1.5-1.1l0,0L279.3,355.9z
		 M283.5,461.8L283.5,461.8l1.5-1.2v0L283.5,461.8z M290.9,427.2l-4.4-4.2l0,0L290.9,427.2L290.9,427.2L290.9,427.2z M304.4,333.6
		L304.4,333.6l3.4,0.5l0,0L304.4,333.6z M302.2,306.7L302.2,306.7l0.3-1.5l0,0L302.2,306.7z M285.4,319l-0.5,1.9l-2.9,1.2l-0.2,1.3
		h0l0.2-1.3l2.9-1.2L285.4,319l2.1-1.3l0,0L285.4,319z M271.4,321.8l-2,1.1l0,0L271.4,321.8l4.1,0.3v0L271.4,321.8z M253.5,328.3
		L253.5,328.3l1.7-0.7l1.9-1.2l1.3-5.7l1.5-2.9l4-0.9v0l-4,0.9l-1.5,2.9l-1.3,5.7l-1.9,1.2L253.5,328.3z M272.4,347.8l-4.2-2.5
		l-1.5-3.8l-2.4-2.7l-3.8-3.4l-0.1-2l-3.1-2.6l-0.7-0.5l0.7,0.5l3.1,2.6l0.1,2l3.8,3.4l2.4,2.7l1.5,3.8L272.4,347.8l0.9,2.1l0,0
		l-1.8,0.6l-3.6-0.1l-4.3-0.7l-2,0.6l-0.9,1.5l-1.8,0.2l0,0l1.8-0.2l0.9-1.5l2-0.6l4.3,0.7l3.6,0.1l1.8-0.6L272.4,347.8z
		 M289.7,435.6l0.8,0.2v0L289.7,435.6L289.7,435.6z M306.6,395.4l1.8-2.7L306.6,395.4L306.6,395.4z M307,381.1l-2.4,1.5l-3.5,0.9
		l-2.6,3.7v0l0,0l2.6-3.7l3.5-0.9L307,381.1L307,381.1L307,381.1z M299.1,400.4L299.1,400.4l-0.1-0.2L299.1,400.4z M252.5,283.8
		l-4.8-0.4v0L252.5,283.8L252.5,283.8z M226.2,434l-3-0.9l0,0L226.2,434L226.2,434z M248.4,494.7L248.4,494.7l-10.3,2.5h0
		L248.4,494.7z M253.9,497h1.6l3.2-1.5v0l-3.2,1.5L253.9,497l-3.7,2.5l0,0L253.9,497z M258.2,454.7L258.2,454.7l3.5,0.6l1.8,2.8
		l4.5,0.9l0,0l-4.5-0.9l-1.8-2.8L258.2,454.7z M272.7,493.2l5.1-5.3l0,0L272.7,493.2l-3.2,4.1h0L272.7,493.2z M280.5,485.2l3.3-2.5
		l0,0L280.5,485.2l-0.7,2.2l0,0L280.5,485.2z M314.9,456.2L314.9,456.2l-1-1.4L314.9,456.2L314.9,456.2z M311.1,468l0.1-2.5l0-0.1
		l0.2,0.6L311.1,468z M312.3,470.8L312.3,470.8L312.3,470.8L312.3,470.8z M313.3,462.6l0-0.1l0,0.4L313.3,462.6z M315.1,470.6
		L315.1,470.6l0.3,0.9L315.1,470.6z M309.8,391.3l1.4-1.4v0L309.8,391.3z M229,246.4l22.4,12.2v0L229,246.4l-22.3-12.2l0,0
		L229,246.4z M232,325.8L232,325.8l-5.4-0.4l0,0L232,325.8z M213.3,335.4L213.3,335.4l-1.4-1.4l-0.9-0.2l0,0l0.9,0.2L213.3,335.4z
		 M151.1,258.5l15.8-12.5l18.6-12.2l-2.5-4l-4.3-2.9l0,0l4.3,2.9l2.5,4l8.8,2.8l1.5,1.8l-1.6-1.8l-8.8-2.8L166.9,246L151.1,258.5
		l-7.8,2.8l0.1,14.6l-3,4.3l-0.5,3.9l0,0l0.5-3.9l3-4.3l-0.1-14.6l-6.1,0.6l0,0l6.1-0.6L151.1,258.5z M176.1,298.7L176.1,298.7
		l3.3,0.2l0,0L176.1,298.7z M188.3,300.2L188.3,300.2l-4.3-1.8l-3-0.4h0l3,0.4L188.3,300.2z M122.5,336l1.2-5.7l0,0L122.5,336
		L122.5,336z M121.7,322.9l0.1-4.6l0,0L121.7,322.9L121.7,322.9z M119.4,315l0.4-1.9l0,0L119.4,315L119.4,315z M86.8,251.8l2.4,27.5
		l1,0.8l-1.3,4.4l-22.3,0.1l-0.9,1.4h0l0.9-1.4l22.3-0.1l1.3-4.4l-1-0.8L86.8,251.8l-2.4-27.4l8.4-0.1l0,0l-8.4,0.1L86.8,251.8z
		 M73.6,331.5l-0.3,2.8h0L73.6,331.5l-0.4-1.2l0.6-0.9l2-0.8l-1.3-5.1l-1.3-2.6l0.5-2.2l1.1-0.5l-1.7-1.8l0.3-1.9l-0.7-0.7h0
		l0.7,0.7l-0.3,1.9l1.7,1.8l-1.1,0.5l-0.5,2.2l1.3,2.6l1.3,5.1l-2,0.8l-0.6,0.9L73.6,331.5z M60.5,307.3l-1.5-1.6h0L60.5,307.3
		L60.5,307.3z M60.4,286.9L60.4,286.9l3.2-1.3h0L60.4,286.9z M71.7,312.3l-0.2,2.1l0,0L71.7,312.3l1.2-1.6l-2.3-2.7l-0.6-1.7
		l-1.3-1.4h0l1.3,1.4l0.6,1.7l2.3,2.7L71.7,312.3z M72.3,334.7l0.1-0.4h0L72.3,334.7z M131.8,302.8l-2.2-0.5L131.8,302.8
		L131.8,302.8z M124.7,313.2l-0.3,0L124.7,313.2L124.7,313.2z M121.7,288.9l0.1-0.7h0L121.7,288.9z M107.5,292.5l1.1-2l0,0
		L107.5,292.5l-1.5,1L107.5,292.5z M124,316.5L124,316.5l1.5,1.7L124,316.5z M125.4,287.9L125.4,287.9l2-2.2h0L125.4,287.9z
		 M135.6,305.3l4.3,3.7v0L135.6,305.3L135.6,305.3z M103.2,181.4l2.5-2.4l7-1v0l-7,1L103.2,181.4l-3.1,0.5v0L103.2,181.4z M81.6,195
		l5.4-1l4.4-1.7l2.1-3.2l6.3-2.5v0l-6.3,2.5l-2.1,3.2L87,194L81.6,195l-8.9,4.7l0,0L81.6,195z M72.6,207.2L72.6,207.2l-0.8,0v0H72.6
		z M62.3,211.4l1.9,0.9h0L62.3,211.4l-4.6,0.7v0L62.3,211.4z M55.8,217.1L55.8,217.1l-1.3,0.3L55.8,217.1z M51.3,225.6L51.3,225.6
		l-7.8,6.8l0,0L51.3,225.6z M32.9,279L32.9,279l1.4-0.7L32.9,279z M54.4,218.2L54.4,218.2l17.9,0.3l0,0L54.4,218.2z M59,321.5
		l-1.5-2.3H53l-1.3,1.2l-1.5,0.2l0,0l1.5-0.2l1.3-1.2h4.5L59,321.5l1.2,2.7L60,326l0.2-1.8L59,321.5z M69.7,336.7l1.1-2.6h0
		L69.7,336.7L69.7,336.7z M73.1,343.8l1.8,0.4l0,0L73.1,343.8L73.1,343.8z M93,320.7l-1-2.1l-2.5-1.4l0,0l-0.4-3.7l1.6-2.7l-0.2-2.2
		l4.5-5.2l0.8-4.4l1.6-1.6l0,0l-1.6,1.6l-0.8,4.4l-4.5,5.2l0.2,2.2l-1.6,2.7l0.4,3.7l2.5,1.4L93,320.7l2.5,1.3l0,0L93,320.7z
		 M100.1,298.3L100.1,298.3l2.3-1.3l0.8-1.6l0,0l-0.8,1.6L100.1,298.3z M127.9,323.8l1.1,1.3v0L127.9,323.8L127.9,323.8z
		 M157.7,299.7l-2.1-2.4l-5.6-2.4h0l5.6,2.4L157.7,299.7l2.9,0.1l0,0L157.7,299.7z M170,301.6l-6.8-3.3l0,0L170,301.6l2.8-0.2l0,0
		L170,301.6z M173.1,342.1L173.1,342.1l3.3-3.7h0L173.1,342.1z M194.1,318.5l-0.7,3.3l-1.2,1.4l-1.1,4.5l-3,2.6l-0.8,3.2l-1.2,2.6
		l-0.5,2.6l-3.9,2.2l0,0l3.9-2.2l0.5-2.6l1.2-2.6l0.8-3.2l3-2.6l1.1-4.5l1.2-1.4L194.1,318.5l1.5-4l4.6-5l0.3-2.1l0.6-1.1l-2.3-2.6
		l-1,0.2l-3.9-7l-1.3-0.2l0,0l1.3,0.2l3.9,7l1-0.2l2.3,2.6l-0.6,1.1l-0.3,2.1l-4.6,5L194.1,318.5z M204.9,410.8l3.3-3.1l1.4-2
		l-0.2-5.3l2.5-6.2l2.6-3.2l3.7-3.1l0.6-2l0.2-2.4l0.9-2.2l-0.3-3.6l0.7-5.6l1.1-4l1.6-3.4l0.3-3.8l-3.6-0.4l-3.8-1.1l-3.3,3.4
		l-2.9,5.9l0,0l2.9-5.9l3.3-3.4l3.8,1.1l3.6,0.4l0.5-4.5l2.2-3.2l3-2l4.6,2.1l0,0l-4.6-2.1l-3,2l-2.2,3.2l-0.5,4.5l-0.3,3.8
		l-1.6,3.4l-1.1,4l-0.7,5.6l0.3,3.6l-0.9,2.2l-0.2,2.4l-0.6,2l-3.7,3.1l-2.6,3.2l-2.5,6.2l0.2,5.3l-1.4,2L204.9,410.8l-3.4,4l0,0
		L204.9,410.8z M217.6,434.5L217.6,434.5l-2.1-3.3l-1.3-2.1l-1.6-3.8l-1.3-4.7h0l1.3,4.7l1.6,3.8l1.3,2.1L217.6,434.5z M186.1,399.2
		L186.1,399.2l3.8-0.8v0L186.1,399.2z M190.4,395.6L190.4,395.6l3,3l4.9,0.3l0,0l-4.9-0.3L190.4,395.6z M198.5,493.6l-0.9,0.4l0,0
		L198.5,493.6l22.5-0.3l0,0L198.5,493.6z M228.6,540.7l-1.1,23.6l-5,3.2l-2.9,0.5l-3.3-1.2l-2.4-0.5l0,0l2.4,0.5l3.3,1.2l2.9-0.5
		l5-3.2L228.6,540.7l0.6-18.5l5.4-0.2l0.9-22.7l4.1-0.2l8.6-2.2l0,0l-8.6,2.2l-4.1,0.2l-0.9,22.7l-5.4,0.2L228.6,540.7l1.4,1l3,6.1
		v0l-3-6.1L228.6,540.7z M278.3,569.3l-1.7-1.9l-2.3-2l-2.6,1.3l-3.1,2.5l-3.2,4v0l3.2-4l3.1-2.5l2.6-1.3l2.3,2L278.3,569.3
		L278.3,569.3z M289.8,556.8l-3-3.5l0.1-2.2l1.6-2.4l0.7-1.8l1.6-0.5l0,0l-1.6,0.5l-0.7,1.8l-1.6,2.4l-0.1,2.2L289.8,556.8l3.3-0.7
		l0,0L289.8,556.8z M301.7,497.6l-1.3,4.4l-0.5,4.7l0.8,1.9l-0.8,3.7l-0.9,0.6l-1.6,4.6l-6.2,7.2l2.2,9l1.1,4.5l-1.4,7.1l0.4,2.3
		l0,0l-0.4-2.3l1.4-7.1l-1.1-4.5l-2.2-9l-2.9-0.6l-1.9,0.8l-2.6-1.1l-2.2-0.1l-8,4.7l-5.2,4.7l-2,4.3l-1.7,2.4l-3,0.5l-1.2,3l-0.6,2
		l-3.6,1.5l-4.4-0.3l-2.5-1.8l-2.3-0.8l-2.7,1.5l-1.5,3.1l-2.7,1.9l-2.8,2.8l-4,0.7l-1.1-2.3v0l1.1,2.3l4-0.7l2.8-2.8l2.7-1.9
		l1.5-3.1l2.7-1.5l2.3,0.8l2.5,1.8l4.4,0.3l3.6-1.5l0.6-2l1.2-3l3-0.5l1.7-2.4l2-4.3l5.2-4.7l8-4.7l-3.4-2.9l-4.2-0.9l-1.5-4.1
		l0.1-2.2l-2.3-0.7l-6-7l-1.6-3.7l-1.1-1.1l-1.9-5.1l0,0l1.9,5.1l1.1,1.1l1.6,3.7l6,7l2.3,0.7l-0.1,2.2l1.5,4.1l4.2,0.9l3.4,2.9
		l2.2,0.1l2.6,1.1l1.9-0.8l2.9,0.6l6.2-7.2l1.6-4.6l0.9-0.6l0.8-3.7l-0.8-1.9l0.5-4.7L301.7,497.6l0.3-8.1l-2.8-2l-2.6-0.5l-1.1-1.6
		l-2.6-1.3h0l2.6,1.3l1.1,1.6l2.6,0.5l2.8,2L301.7,497.6z M307.8,475.1l1.6-0.6l0,0L307.8,475.1L307.8,475.1z M316,485.6l-1.9,4.5
		l0,0L316,485.6l2.5-1.3l-0.1-8.2l-2.2-4.6l-1.3-1.4l0,0l1.3,1.4l2.2,4.6l0.1,8.2L316,485.6z M317,455.9L317,455.9l6.7,1.8h0
		L317,455.9z M331.1,454.9L331.1,454.9l3.3,0.1l0,0L331.1,454.9z M338.1,360.9l-1.2-0.7l-1.3,0.1h-1.8l-7.2-5.4h-3.9l-2-2.1v-3.6
		l-2.9-1.1l0,0l0,0l2.9,1.1v3.6l2,2.1h3.9l7.2,5.4h1.8l1.3-0.1L338.1,360.9l3.8,0.5l0,0L338.1,360.9z M350.9,358.2l-2.3-2.1l0,0
		L350.9,358.2l3.8,0v0H350.9z"/>
</g>
</svg>
