<?xml version="1.0" encoding="utf-8"?>
<!-- Generator: Adobe Illustrator 22.0.0, SVG Export Plug-In . SVG Version: 6.00 Build 0)  -->
<svg version="1.1" id="Capa_1" xmlns="http://www.w3.org/2000/svg" xmlns:xlink="http://www.w3.org/1999/xlink" x="0px" y="0px"
	 viewBox="0 0 1366 768" style="enable-background:new 0 0 1366 768;" xml:space="preserve">
<style type="text/css">
	.st0{fill:#F4DB8C;}
</style>
<g>
	<polygon class="st0" points="496.1,670.7 493.1,667.5 491,665.5 491,665.5 488.4,665 486.1,666.8 486.2,669.6 485.4,671.6 
		480.4,670 474.4,667.2 471.2,666.3 478,671.1 482.4,673.3 487.6,675.7 491.3,676.3 494.3,677.6 496.4,677.9 498.1,678 500.3,676.7 
		500.6,675.1 500.6,675.1 502.9,676.5 505.9,676.3 506.6,674.2 501.5,673.2 	"/>
	<path class="st0" d="M582.2,457.1l-1.5-1.4l-3.4-0.1l-3-1.3l-5.1-5l-5.9-3.7l-5.9,0.2l-7.6-2.4l-4.5,1.4l0.6-2.4l-1.9-2.7l-6.6-2.7
		l-5-1.6l-2.9,2.9l-0.2-4.4l-6.9-0.7l-1.2-1.4l2.9-3.6l-0.1-3.1l-2.1-0.7l-2.1-7.8l-0.9-2.4l-1.3,0.2l-0.6-1.8l-4.1-3.8l-2.9-1
		l-1.3-0.5l-2.2,3.8v0l2.2-3.8l-4.2-1.2l-3.2,0.3l-0.4,0.8l-4.7-0.8v0l-1.5-1.6l-2-2.2l-1.5-0.1l-0.1-2.3l-2.3-2.9l-2.5-1.7
		l-3.2,2.7l-0.4,1.6l1.3,1.6l-1,0.8l-2.4,0.8v2l-1.1,1.3l2.6,3.4h0l0.5,1.3l0,0l-0.5-1.3l-2.6-3.4l1.1-1.3v-2l2.4-0.8l1-0.8
		l-1.3-1.6l0.4-1.6l3.2-2.7l-1.5-1l-2,0.1l-0.5-3.6l-2.9-2.2l-3.1-0.3l-1.3-2.1l3.4-1.3l-4.7,0.1l-4.8,0.3l-0.1,1.1l-2.2,1.3
		l-2.9-0.5l-2.2-2l-4.2,0.5l-3.5-0.1l-0.1-1.5l-2.4-2.4l-2.7-0.1l-1.2-3.1l-1.5,1.4l0.4,2.1l-5,1.8v3.4l1.1,1.5l-1,3.2l-1.7,0.3
		l-1.3-3.5l1.9-2.6l0.2-2.3l-1.2-2l2.3-0.6l0.2-1l-2.6,0.8l0,0l2.6-0.8l0.8-1.5l-0.9-1.2l-1.4-0.3l-2,2.2l-1.6,1l-3.2,2.2l-3-0.3
		l-0.3,0.9l-2.5,0.1l-2.3,2.1l-1,3.8l-0.1,1.5l-1.7,0.5l-3.1,3.1l-2-0.1l-1.4-1.3l-1.2-1.3l-1.7-0.8l-2.2-0.1l0.2-0.4l-2.2-0.3
		l-1.4,1.3l-2.4,0.9l-1.7,1.1l-1.9,0.3l-1-1.1l-0.3,0.3l-1.6-0.2l0.1-0.9l-1.3-1.6l-1.5,0.4v0l1.5-0.4l-1.7-1.9l-1.4-1.8l-0.8-2.4
		l-0.6-0.8l-0.1-1.2l0.8-1.1l-0.1-1.2l0.5-1.9l0.6-0.5l0.1-2l-0.1-1.2l0.3-2l0.6-1.7l1-1.5l-0.2-1.6l0.3-1l0.4-0.4l-0.9-1.3
		l-1.3-0.7l-1-1l-1.1-0.8l-0.6-0.1l-1.7-0.6l-0.8,0.3l-1,0.1l-0.9-0.3l-1.2-0.3l-0.6,0.5l-1.3,0.5l-1.8,0.1l-1.7-0.4l-0.6,0.3
		l-0.3-0.4l-1.1,0.1l-0.9,0.8l-0.4-0.1l-1-0.6l-0.4,0.6l-1.2-0.8H374v0l1.1,0l1-1.5l0.7-0.1l0.9-1.2l0.7-2.2l-0.2-0.4l0.6-1.6
		l-0.3-0.7l0.9-1.9l0.2-1.3h-0.8l0.1-0.6l0.8-0.1l0.8,1.1l1.4-3.5l0.8-1.9l-0.6-0.8l1.3-2.7l2.4-2.7l0.4-2.2l-0.8-0.9l-2.4,0.3
		l-3.4-0.1l-4.2,1l-2.8,1.2l-0.8,1.3l-0.8,3.8l-1.3,2.6l-2.7,1.8l-2.5,0.8l-3,0.8l-3,0.4l-3.6,1.3l-1.3-1.8l-3.9-1.2l-1.3-2.2
		l-0.5-2.5l-2.1-3.3l-0.3-3.5l-0.8-2.2l-0.3-2.4l0.8-2.2l1.3-6l1.3-3.1l2.2-3.9l-0.4-1.5l0.3-2.2l0.7-3.1l1.3-2l2.6-2.2l4.2-1.9
		l4.3-3.3l3.4-1l2.4-0.3l2.4,1l3.4-0.6l2.3,2.4l2.7,0.1l1.7-0.8l1.2,0.6l0.9-0.6l-0.6-0.9l0.5-1.7l-0.3-1.2l1.7-0.7l2.9-0.3l3.3,0.5
		l4.3-0.6l2.1,1l1.4,2.1l0.6,0.2l4.3-2l1.3,0.7l2.1,3.7l0.6,2.4l-1.4,2.9l0.3,1.7l1.1,3.4l1.4,3.8l1.3,1l0.3,2l1.8,0.6l1.2-0.6
		l1.4-2.7l0.5-1.7l0.6-3l-0.8-5.2l0.3-1.9l-1-3.1l-0.5-3.8l0.1-3.1l1.3-3.1l2.4-2.7l2.6-2.1l4.8-2.9l0.9-1.5l2.3-1.6l2-0.3l3.1-2.7
		l4.2-1.3l3.2-3.4l0.6-4.5l0.1-1.5l-1-0.3l1-4.3l-2.1-1.5l2.2,0.7v-2.9l1.3-1.9l-0.7,3.7l1.4,1.7l-2,3.1l0.3,0.1l3.1-3.6l1.7-1.7
		l0.4-1.7l-0.6-0.8l-0.1-2.4l0.8,1.1l0.8,0.3l-0.1,1.1l3.6-3.4l1.7-3.1l-1-0.2l1.5-1.3l-0.3,0.6h2.3l5.4-1.3l-0.8-0.8l-5.5,0.8
		l3.4-1.3l2.2-0.2l1.7-0.2l2.9-0.8l1.7,0.1l2.7-0.7l0.7-1.2l-0.8-1l-0.1,1.5l-1.5-0.1l-0.4-2.3l0.8-2.3l1-0.9l2.7-2.6l4.1-1.3
		l4.2-1.5l4.4-2.1l-0.1-1.4l4.1-0.6l5.7-0.1l-7.3,3.6l-1,3.6l2.6,0.3l5-3.1l4.1-1.7l8.5-2.6l5.2-2.9l-1.8-1.5l0.7-3.1l-5,4.9l-6,0.6
		l-3.8-2.2l-0.1-3.2l0.4-4.8l4.3-2.9l-2.3-2.2l-5.3,0.4l-8.5,3.6l-7.6,5.7l-3.2,0.7l5.4-4l7.1-5.8l5-1.9l4-3.1l3.6-0.3l5.1,0.1
		l7,0.9l6-0.7l5.4-3.6l6.1-1.5l2.9-1.5l2.9-1.6l1.4-4.8l-0.8-1.6l-2.4-0.6v-3.6l-1.6-1.3l-4.8-1.1l-2-2.4l-3.4-2.4l2.4-2.6l-1.4-5
		l-1.8-5.2l-0.7-3.6l-3,1.9l-5.2,4.5l-5.7,2.2l-1.1-2.4l-2.6-0.7l1.5-5.1l1.8-3.4l-5.4-0.3l-0.1-1.5l-2.5-2.3l-2.1-1.4l-3.1,1
		l-2.9-0.3l-4.6-1.1l-2.7,0.9l-2.7,6.3l-0.7,3.7l-6.1,4.3l2.2,3.1l0.3,3.5l-1.2,2.8l-3.3,2.9l-5.2,2.9l-6.3,2l1.2,2.2l-1.5,6.7
		l-3.9,4.4l-3.2,1.3l-3.1-4.1l-0.1-4.8l1.2-4.2l2.5-3.6l-3.4-0.4l-5.2-0.3l-2.5-1.7l-3.4-1.1l-1.2-2l-2.3-1.5l-4.9-1.8l-5,0.8
		l0.5-3.1l1-3.8l-4.2-0.7l3.4-4.8l3.4-3.2l6.6-4.5l6-3.2l3.9-0.5l2-2.6l3.6-1.7l4.5-0.3l5.4-2.7l2-1.7l5.2-3.3l2.2-2l2.2,1.2
		l4.5-0.6l7.5-2.7l1.6-1.9l-0.6-2l3.5-2l1.2-1.9l-2.4-1.8l-3.8-0.6l-3.8-0.3l-3.2,4.1l-4.5,3.2l-5,2.8l-0.9-2.6l2.9-2.8l-1.5-2.4
		l-6.1,2.9l3-3.8l-4.6-0.7l4-1.8l-0.3-4.2l-1.3-1.6l-3.1-0.6l-5.7,2.7l-3.8,4.1l2,1.5l1.1,2.3l-4.4,3.8l-2.2-0.1l-4.3,3.1l2.9-3.6
		l-3.4-1.3l-3.1,0.6l-1.7,2.4l-4.1-0.1l-5,0.6l-3.6-1.7l-3.5,0.3l-1-2l-1.5-0.9l-2.7,0.3l-3.6,0.2l-3.1,1.3l1.4,1.6l-4.9,2l-1-2.3
		l-3.1,0.7l-8.2,0.4l-4.5-0.8l5.9-1.8l-2-2l-3.1,0.3l-3.3-0.7l-5.2-1.3l-2.7-1.6l-3.1-0.2l-2.3,1.1l-4.1,0.6l2.7-2.9l-6.6,2.5
		l-1-3.3l-1.5-0.4l-2.7,1.7l-3.1,0.8l-0.1-1.5l-5.7,1l-6.1,1.6l-3.6-0.4l-4.9,1.1l-4.3,1.6l-2.6-0.3l-2.3-1.8l-4.1-0.9l-2.4-0.5
		l-2.9-1.1l-4.5,0.6l-1.5-0.5l-5-0.3l-4.3-1.1l-3.4,0.3l-3.4-0.6l1.4-0.8l-4.4-0.2l-2.3,0.7l0.3-1.7l-3.1-0.8l-7.1,2l-2.2-0.2
		l-7.7,1.6l-3.4,0.4l-5.4,1.7l-3.4,1.8l-6,1.7l-5.3,0.1l-4.4,2l2.2,1.2l0.5,1.6l-0.6,1.9l1.6,1.5l-0.8,2.4l-6.4,0.1l3-2H238
		l-9.2,1.9l-6.4,1.6l0.7,2.3l-0.8,1.5l3.1,1l4.8-0.5l1.3,0.9l2-0.9l4.3-0.8h1.9l-4.1,1.5l0.8,0.7l-1.7,1.8l-3.8,1.3l-1.7-0.3
		l-4.9,1.9l-1.3-0.6l-2.9,0.3l-3.7,2.1l-5.3,2.2l-4.1,2.4l0.2,1.7l-2.8,2.3l1,1l0.3,1.9l5-0.8l0.3,1.5l-2.3,1.5l-2.5,2.4h2l5-1.6
		l-1.1,2l2.5-1.5l-0.3,2.1l3.4-1.5l0.3,0.8l5-1.3l-4.3,2.4l-4,3.1l-4,1.5l-1.6,0.8l-7.2,2.5l-3.4,1.7l-4.5,0.5l-5.9,2.3l-4.6,1.3
		l-5.7,2l-0.3,0.7l7-1.2l4.2-1.4l4.8-1.4l4.3-1.2l2,0.3l5.7-1.8l3.1-2l7.3-2.2l2.7-1.8l4.6-1.3l5.3-1.7l6.2-2.9l-0.1-2l7.8-2.9
		l5.2-2.7l6.4-2.2l-0.3,1l-4.7,1.3l-5.8,4l-2.2,2.4l4.5-0.9l4.3-1.3l4.5-0.9l2-0.2l2.4-2.9l4.4-0.8l1.8,1.7l4.2,1.9l4.7-0.3l4,1.4
		l2.2,0.8l2.3,4.3l2.6,1.2l5,0.1l2.9,0.3l-1.9,3.8l1.1,3.4l-2.3,3.6l1.7,1.3l0.4,1.5l-1.7,2.2l1.5,3.1l-2.2,3.4l2.9,1.8l-2.5,2.6
		l-0.9,3.8l4.8,1.7l1.1,1.9l3.8,4.3h0.5l-1.1,3.6l-1.7,3.6l-1.6,1.1l0.8-4.1l-4.1-1.5l-1,0.8l-0.3,2l-1.3,3.8l-2.9,5.8l-2.8,3.9
		l-2.8,3.9l-3.8,4.1l-0.8,3.3l-2,3.7l-2.7,3.6l0.7,2.4l-1.3,3.6l1,3.8l0.9,1.5l-0.6,1l0.3,6.3l1.7,4.5l-0.6,2.4l0.7,0.7l3.2,0.5
		l0.9,1.2l2,0.2l-0.1,1.3l1.5,0.5l1.5,2.6l-0.2,2.2h0l0.1,4l0.5,3.6l0.5,2.9l0.6,2.8l1.8,1.3l2,3.1l-0.7,2l-1.9,1.6l-1.5-0.2
		l-0.4,0.3l1.6,2.6l2,1l0.7,1.2l0.6-0.6l2.2,2l1.5,1.4l0.1,2.4l-0.8,3.3l1.7,1.1l2.3,2.2l2,2.5l0.5,2.7h0.7l1.9-1.6l0.3-0.8l-1-2
		l-1.1-2l-1.8-0.1l0.3-2.4l-0.6-2.1l-0.7-2l-0.3-4.1l-1.8-2.2l-0.4-1.6l-0.8-1.1v-2.9l-0.7,0.1l-0.1-1.5l-0.5-0.3l-0.3-1l-1.9-3.1
		l-0.8-1.8l0.7-3.4l0.1-2.1l1.3-1.8l1.7,1.2l1.3-0.1l2.2,1.7l-0.6,1.7l0.3,3.4l1,3.3l-0.3,1.4l1.2,2.2l1.6,2.4l1.9,0.3l0.2,3.1
		l1.7,2.2l1.7,1l-1.3,2.8l0.5,1l2.9,1.8l1.3,2.8l3.1,3.4l2.7,4.5l0.9,2.2v1.7l1,2l-0.2,1.5l-1.1,1.1l0.2,1.3l-1.3,0.5l0.6,2.2
		l1.5,2.8l3.7,2.5l1.3,2l3.8,1.4l2.1,0.3l0.8,1.2l2.9,2.1l4.1,2.1l2.8,0.6l3.4,2l2.8,0.8l2.6,1.2l2-0.5l3.4-1.7l2.2-0.3l3.1,1.1
		l1.8,1.5l3.8,4.8l0.3-1.3l0.6-1l-0.5-0.8l2.3-3.6h0l-2.3,3.6l0.5,0.8l-0.6,1l-0.3,1.3l1.9,1.8l1.7,0.9l2.4,0.1l2,0.8l1,0.9l2.2,0.3
		l1.5,0.9l1.3,0.4l2.3,0.1l0.5-1l0.4-1.7l0,0l-0.4,1.7l1.2,0.4l0.5,1.4l-0.3,0.3l-0.6-0.7l-0.5,0.7l1.8,2l1.5,1.4l0.7,1.5l1.7,1.8
		l1.3,1.4l-1,0.8l1,0.6l-0.6,1.4l-0.1,1.4l0.5,0.9l1.2,0.4l0.8,1.3l0.8-1.1l-0.2-1.3l1,0.8l0.2,1.3l1.3,0.6l1.5,0.9l1,1l0.1,1
		l-0.5,0.8l0.8,0.9l2,1v0l0.4,0.7l0.2-1h1.7l1,0.5l1.6,0.3l0.7,1.7l1.3,0.3l0.6-0.8l0.6,2.7l1.8-0.2l0.6-0.6l1-0.6l-1.7-2.4l0.4-0.9
		l0.9-0.2l1.6-1.1l0.8-1.5l1.7-0.3l1.9,1.3l0.7,1.5l1,0.3l-1,1.2l0.7,2.4l1.3,1.3l1.5,2.4l0.4,3.8l-0.8,1.1l0.8,4.1l-0.8,2.6l1.4,1
		l-1.5,2.3l-1.7,2.8l-2,0.3l-1,1.6l0.1,2.2l-1.5,0.3l0.6,1.4l-2.7,1.7l-2.2,1l0.3,1.8l-1.5,2.9l-0.7,2.7l-1.3,0.7l0.7,4.1l-0.8,1.3
		l2.4,1.9l1.5-2l0.9,2l-2,3.3l0.5,1.9l-1,1l0.1,1.6h0l-0.1-1.6l1-1l-0.5-1.9l-3.1,2.8l-1.1,3.1l2.1,4.3l-1.2,2l2.9,1.8l3.1,2.9
		l1.4,3.3l1.7,2l4.2,8.9l4.3,8.2l3.8,5.9l-0.6,1.3l2,3.7l3.2,2.7l7.5,4.8l8.1,4.5l0.5,1.8l4.1,2.6l1.9-1.1l0.8-2.3l2-4.8l-2,4.8
		l2.2,3l0.8,3.2l2.2,1.9l-0.8,4.3l2.6,5l0.4,1.2l-0.4-1.2l-2.6-5l0.8-4.3l-2.2-1.9l-0.8-3.2l-2.2-3l-0.8,2.3l-1.9,1.1l1.5,6.3l1,7.3
		l-0.1,9.9v9.2l0.6,8.6l-1.3,5.4l1.5,5.4l-0.3,3.7l2.2,6.6l-0.1,6.6l-0.8,7.1l-0.4,7.3l-1.5,0.1l1.7,5.1l2.3,4.4l-0.8,3l1.3,8.1
		l1,6.1l2.4,0.6l-0.8-5.4l2.8,1.1l1.3,8.9l-4.5-1.5l1.4,7.1l-1.9,3.8l5.7,1.3l-2.4,3.4l0.1,4.2l3.5,7.4l2.9,2.9l0.1,2.5l2.3,2.7
		l5.2,2.4l5.2,2.9l4.3,1.4l1.4-0.1l-1.3-4l2.4-1.5l1.2-1h2.9l0,0l1.5,0.3l-3.3-2.5l-2.9-4.4l0.6-2l2.4-1.7l0.3-5l3.3-2.4l-0.1-3.9
		l-3.6-0.9l-4.5-3.1l-0.1-3.3l2-2.2l3.3-0.1l0.1-2.3l-0.8-4.3l2-2.7l2.9-1.3l-1.7-2.2l-1.5,1.4l-2.8-1.3l-1.7-4.3l1-1.1l3.9,1.6
		l3.5-0.6l1.7-1.5l-1.3-2.2l-0.1-3.4l-1.4-2.7l4.1,0.4l7.1-0.9l4.8-2.4l2.3-5.8l-0.2-2.2l-2.7-2l-0.1-3.1l-5.4-3.8l-0.2-2.3l2.7,2.4
		l2.5-0.1l3.8,1.9l1.9-0.4l2.9,0.8l3.7-2.4l1.1-2.8l-1.5-2.6l1.3-2.1l-2.7-3l-3.4-2.4l-4.3-2.9l-1.3,0.1l-4.3-3.4l-2.4,0.5l4.1-6
		l3.7-4.3l-3.7,4.3l-4.1,6l2.4-0.5l4.3,3.4l1.3-0.1l4.3,2.9l3.4,2.4l2.7,3l-1.3,2.1l1.5,2.6l2-2.6l1-4.2l2.2-2.1l2.7-3.5l3.1-7.8
		l2.4-2.4l0.6-2.2l0.2-4.5l-0.9-2.4l0.2-3.4l2.9-4.4l4.2-3.6l4.2-1.3l2.5-2l5.9-1.7h4.1l0.8-2.7l2.9-2l0.4-4.5l3.6-5.8l0.3-5.9
		l1.1-1.8l0.2-2.9l0.8-6.9l-0.7-8.3l1-3.3l1-0.1l2.7-3.8l2.3-5l5.4-6.1l1.9-2.9l1.4-7.3l-0.7-2.7L582.2,457.1z M375.4,353L375.4,353
		l-0.1,0.7v0h0L375.4,353z M442.5,237.9l3.2-0.6l1.3,0.8l1.3-1l1.3-0.6l0.6,0.3l0.1,0.1l0.1,0.6l-0.4,1.7l-3.2,1.4l-2.7-0.3
		l-2.8-0.1l-1.8,0.5l-0.2,1.3l-0.1,0.4l-4.1,2.6l-3.1,1.3l-2,0.6l-2.6,1.2l-2.8,0.6l-1.7-0.2l-1.9-0.9l1.9-1.7l1.9,0.3l3.1-1.4
		l2-1.2l1.1-0.2l1.8,0.4l1.2-0.6l2-0.6l3.3-0.6l0.2-1.3l-0.2,0.1l-1.2,0.2l-1.3-0.4l1.6-1.5l1.3-0.5L442.5,237.9z M398.2,217.5
		l3.2,0.7l0,0l2.7,1.3l3.1-0.6l3.7,1.1l2.2-1.7l2.2-0.7l1.3-1l1-0.6l2.8,0.8l2.3,0.1l0.6,0.6l0.1,2.4l3.6,0.7l-1.2,1.2l0.8,1.3
		l-1.3,1.6l1.3,0.6l-1.3,1.5l0.8,0.1l0.9-0.6l0.3,1l2.4,0.5l2.7,0.1l2.7,0.4l2.8,0.8l0.6,1.4l1,3.3l-1.7,1.4l-2.7-0.6l-0.7-2.7
		l-0.6,2.7l-2.7,2.4l-0.6,2l-0.8,1.2l-2.9,1.4l0.5-1.7l0.3-2.4l-1.1-0.5l-3,2L423,239l0.2-1l2.7-1.7l1.1-2l0.5-2l-1.9-1.7l-2.6-0.9
		l-1.2,1.7l-1,0.4l-1.5,2.2l0.3-1.5l-1.8,1l-1.5,1.4l-1.8,2.2l-0.9,1.8l0.1,2.7l-1.3,2.8l-2.3,2.1l-1,0.6l-1.1,0.5h-1.3l-0.2-0.3
		l-0.1-2.3l0.5-1.1l0.5-1l0.4-2.1l1.7-2.4l2-3l3.2-3.3h-0.5l-3.8,2.8l-0.3-0.5l2-1.6l3.3-2.8l2.6-0.3l3.1-0.9l2.6,0.5h0.1l3.3-0.3
		l-1-1.7l-0.8-0.1l-1-0.2l-0.3-1.2l-3.6,0.3l-3.5,1l-1.7-1.6l-1.7-0.6l2.2-2.3l-3.7,1.4l-3.4,1.5l-3.2,1l-1.5-1.5l-3.8,0.9l0.3-0.6
		l3.2-1.8l3.3-1.7l4.1-1.5l-3.7-1.1l-3.1,0.6l-2.7-1.3L398.2,217.5l-2.2-0.3l0,0L398.2,217.5z M394.7,214.2h1.1v0L394.7,214.2
		l-0.9,1.7L394.7,214.2z M291.3,288.4l0.7-0.9h0L291.3,288.4l4.3,1.9L291.3,288.4z M303.7,293.6l-6.1-2.5L303.7,293.6L303.7,293.6z
		 M314.2,293.6l0.6-1.8h0L314.2,293.6z M368.1,353.7L368.1,353.7l-0.3,2.5h0L368.1,353.7z M369.2,361.4L369.2,361.4l0.3-1.5
		l-0.6-0.3l-0.3-1l-1.3-1l-1.3-1.5h0l1.3,1.5l1.3,1l0.3,1l0.6,0.3L369.2,361.4z M372.8,368.8L372.8,368.8l0.9-1.1v0L372.8,368.8
		l1,0.3L372.8,368.8z M375.8,371.3l-0.1-0.6L375.8,371.3L375.8,371.3z M373.9,365.9l-0.3,0.8v0L373.9,365.9l2-1.3L373.9,365.9z
		 M390.5,367L390.5,367l0.6,0.6L390.5,367z M409.8,454.9l-1.7-2.2l-1.6-0.5h0l1.6,0.5L409.8,454.9L409.8,454.9z M445.5,445
		L445.5,445l-2.4,4.5h0L445.5,445z M436.8,384.8l1.5-1.3L436.8,384.8L436.8,384.8z M432.5,470.3l-1.8-4.1L432.5,470.3l0.3,0.3
		L432.5,470.3z M433.9,462.3l-2.3,1.3v0L433.9,462.3L433.9,462.3z M442.2,452.4l-3.2,0.8l-4.3,3l4.3-3L442.2,452.4L442.2,452.4z
		 M444.9,481.8l-0.1-6.8l0,0L444.9,481.8L444.9,481.8z M442.7,451.7l-0.4,0.6L442.7,451.7l3.6,0.2l0,0L442.7,451.7z M446.3,428
		L446.3,428l2.3,0.5L446.3,428z M456.3,425.2l-1.1-1.4L456.3,425.2l0.7,2.7L456.3,425.2z M508.5,416.7L508.5,416.7L508.5,416.7
		L508.5,416.7z M500.6,421.7l1.6,0.4l1.9-0.5l2.2,1l0,0l0,0h0l-2.2-1l-1.9,0.5L500.6,421.7l-0.3,1.3L500.6,421.7z M500.6,424.8
		l0.3-0.9L500.6,424.8l-2.2-0.3l0,0L500.6,424.8z M496.7,519.1l0.9-2l0.3-3.5l-1.1-2.8h0l1.1,2.8l-0.3,3.5L496.7,519.1L496.7,519.1z
		 M497.2,521.6l-0.4-2L497.2,521.6l-1.1,0.9l1.3,2.5l0.3,6l-0.3-6l-1.3-2.5L497.2,521.6z M493.4,412.5l-0.2-1h0L493.4,412.5
		l-0.8,2.3l1.7,3.2l1.3,0.1l0.2,1l-0.2-1l-1.3-0.1l-1.7-3.2L493.4,412.5z M494.6,509.7L494.6,509.7l-0.6-1.8l0.4-2.5h0l-0.4,2.5
		L494.6,509.7z M486,413.2L486,413.2l0.8,2.1l-1.1,1.5l-0.7,3.8l1,2.3l0.2,2l2.4,2.1h0l-2.4-2.1l-0.2-2l-1-2.3l0.7-3.8l1.1-1.5
		L486,413.2z M486.2,499.9L486.2,499.9l-1.1,0.1l1.9,5.2h0l-1.9-5.2L486.2,499.9z M484.8,494.1L484.8,494.1l0.3,2.2L484.8,494.1z
		 M485.5,497.2l0.5,0.8l0.2,1.8l-0.2-1.8L485.5,497.2z M484.3,409.6l0.9,1l-0.6,2l0,0l0.6-2L484.3,409.6L484.3,409.6z M480.4,524
		l1.5-3.9l6.6-1.3l3.6,0.1l3.8,2.3v0l-3.8-2.3l-3.6-0.1l-6.6,1.3L480.4,524L480.4,524z M471.4,422.1l0.2,1h0L471.4,422.1l-3.4-0.3
		l-0.5-2.8l0.2-2.6l-0.2,2.6l0.5,2.8L471.4,422.1z M466.1,414.9l1.7,1.1v0L466.1,414.9L466.1,414.9z M464.9,476.3L464.9,476.3
		l-0.3,3.3l0.6,1.7l-0.2,3l0,0l0.2-3l-0.6-1.7L464.9,476.3z M495.6,543l-5-3.3l-3.2-0.7l-7.8-7.3l-0.7-0.9l-4.4-0.2l-1.1,3.6
		l-2.6-3.2l-5.2-1l-2.8,4l-2.7,0.6l2.7-0.6l2.8-4l5.2,1l2.6,3.2l1.1-3.6l4.4,0.2l0.7,0.9l1-5.3l-0.1-2.1l0.1,2.1l-1,5.3l7.8,7.3
		l3.2,0.7L495.6,543l4.1,1.7l0.8,2l-0.8-2L495.6,543z M501.5,554.6l-4-1.3v0L501.5,554.6l4.3,0.7L501.5,554.6z M508.3,539.3
		l-0.6-1.7l-0.7-4.1l-0.8-1.3l0.8,1.3l0.7,4.1L508.3,539.3l1.4,0.2L508.3,539.3z M516.4,552.5L516,549l-2.2-2.6l-1.8,0.8l-0.2,4
		l0.2-4l0.5-2.5l0.2-2.7l-0.2-2.4l-1.5-0.8h0l1.5,0.8l0.2,2.4l-0.2,2.7l-0.5,2.5l1.8-0.8l2.2,2.6L516.4,552.5L516.4,552.5z"/>
	<polygon class="st0" points="453.9,112.4 456.1,113 460.9,112.6 464.9,110 466.9,108.3 466.8,106.7 466,107.2 462.6,106.9 
		457.3,108.1 454.7,108 451.7,110.6 456.3,110.4 	"/>
	<polygon class="st0" points="462.1,101.4 464.9,102.4 468.6,102.8 469.3,101.4 469.4,99.9 464.2,98.7 460,98.3 458.5,99.5 
		460.5,100.2 456.8,101.2 	"/>
	<polygon class="st0" points="446.4,120.7 441.2,120.2 440,121.4 444.1,124.1 444.7,125.5 447.1,125.9 452.9,124.5 456.5,121.2 
		453.8,119.7 458,118 458.4,116.9 453.1,117.4 450.7,116.7 445.7,118.3 	"/>
	<polygon class="st0" points="477.1,108.1 478.1,109.5 476.5,111.2 475.5,113.2 481.4,114.3 485.3,114.7 490.9,114.6 499,114.1 
		502,114.5 506.6,113.8 509.1,112.8 509.8,111.4 508.2,110.1 504.1,109.9 498.5,110.2 493.7,110.9 490.1,110.6 486.7,110.4 
		485.9,109.7 483.7,108.9 485.7,107.6 484.7,106.5 479.6,106.5 478,105.4 473,105.2 470.4,106.6 472.2,107.6 	"/>
	<polygon class="st0" points="435.5,130.4 432,128.7 429.1,126.9 430.8,124.3 432.7,120.8 431.1,119.4 429,118.8 426.1,119.3 
		424.1,123 421.1,124.5 422.7,120.9 421.5,119.7 416.4,121.6 414.6,119.8 407.3,120.8 410.6,119.2 408.6,118.5 398.8,120.7 
		395.2,122.1 389.8,124.8 393.6,125.8 397.9,125.7 389.8,127.2 389.8,128.5 393.8,128.6 400,128.3 404.6,129.2 400.3,129.9 
		396.4,129.6 391.5,130.3 389.1,130.7 389.6,133.6 392.5,133.2 395.4,134.3 395.2,136 400.6,135.7 408.4,135.1 415,133.8 
		418.5,133.6 422.5,134.6 427.2,135.2 429.3,133.8 428.8,132.4 433.7,132.1 	"/>
	<polygon class="st0" points="478.9,102.3 481,101.1 479.4,100 478.2,99.8 475.1,99.7 473.7,100.9 473.2,102.2 474.3,103 	"/>
	<polygon class="st0" points="408.4,109 415.3,107.5 417.9,107.3 421.6,106.2 425.6,103.6 421.4,104.1 417.6,104 409.1,106.2 
		401,108.8 403.5,109.5 	"/>
	<polygon class="st0" points="476,103.9 480.5,104.1 481.8,104 482.5,103.7 481.5,103 476.5,103 	"/>
	<polygon class="st0" points="376.8,127.2 386.1,125.5 388,123.9 394.3,121.3 404,118.8 408.4,117.9 407.3,116.4 406,115.4 
		399.4,115.3 396.6,114.5 386.8,115 386.6,117.2 381.3,119.5 376.1,122.2 373.1,123.7 377.2,125.6 	"/>
	<polygon class="st0" points="418.3,108.5 410.2,111.8 413.1,112.4 425.5,112 418.1,113.6 417.1,114.7 421.2,114.6 429.7,113.1 
		439.4,112.5 442.9,110.9 444.5,109.3 442,109.1 439,109.7 439.4,108.4 440.7,106.8 438.5,106.5 434.6,107.6 434.1,110.9 
		429.8,110.6 427.8,108.6 422.1,107.5 	"/>
	<polygon class="st0" points="441.1,103.5 443.3,102.5 440.4,101.9 436.3,102.3 432.7,103.3 435,104.4 	"/>
	<polygon class="st0" points="441.9,134 444.8,135.2 447.7,133.8 447.1,132.4 446.9,131.7 445.8,131 443.7,130 440.3,131.6 
		436.8,132.8 439.2,134.5 	"/>
	<polygon class="st0" points="436.7,117.4 432.9,117.5 431.5,118 433,120.5 437.9,118.1 	"/>
	<polygon class="st0" points="446.5,100.5 444.2,99.9 443.1,99.8 439.1,100.7 438.4,101.1 442.6,101.1 	"/>
	<polygon class="st0" points="463.2,159.7 463.2,160.7 465.3,160.9 470.2,158.6 470.8,157.9 466.6,157.8 	"/>
	<polygon class="st0" points="502.5,139.6 503.5,138 501.9,137 499,137.5 496.3,139.6 495.8,141.5 499.2,141.3 501.8,140.1 	"/>
	<polygon class="st0" points="472.8,112.7 473,111.6 472.1,110.4 467.2,111.3 464.2,112.8 466.4,113.7 470,114 	"/>
	<polygon class="st0" points="460.9,118.1 459.1,119.9 457.9,123 460.9,123.2 466.3,120.4 470.2,119.7 477.2,116.6 472.9,115.7 
		467.5,115.6 463.8,116.6 	"/>
	<polygon class="st0" points="506.9,120.1 509.8,120.1 512.7,120.2 513.1,119.2 510.1,117.3 504.2,116.9 502.7,117.1 501.5,118.4 
		502.9,120.4 503.6,120.6 	"/>
	<polygon class="st0" points="498.4,226.5 497.9,224.4 496.2,225.7 496.5,227.2 500.4,229 501.8,228.7 504.1,227 500.8,227 	"/>
	<polygon class="st0" points="505.5,93.6 508.5,94.7 517.2,94.4 522.2,94.8 517.2,95.8 515.7,95.6 509.2,95.4 508.4,97 510.5,98.1 
		508.5,99.3 503.3,100 499.9,101.2 503.2,101.8 504.4,103.9 499.2,102.5 497.4,102.8 496,105.1 490.4,105.9 489,107.5 493.7,107.7 
		497.1,108.1 505.3,107.6 511.2,108.6 520,106.5 520.7,105.7 516.2,105.8 516.6,105.1 521.1,104.1 523.6,102.8 528.4,101.8 
		531.9,100.7 531.3,99.2 533.6,98.6 530.6,98.2 538.4,97.9 540.6,97.3 546.1,96.7 552.6,94.3 557.4,93.5 564.6,91.8 559.4,91.8 
		562.1,91.2 568.4,90.6 575.2,89.5 575.9,88.7 572.3,88 567.6,87.7 561.7,87.5 556.8,87.4 552,87.2 544.9,87.6 543.9,87.3 
		536.7,87.5 532.2,87.7 528.6,88.2 525.2,89.6 523.5,88.9 520.8,88.7 516.1,89.7 511,90.1 508.1,90.2 503.9,90.7 503.2,91.6 
		504.9,92.5 	"/>
	<polygon class="st0" points="535,142.2 532.8,138.6 528.6,137.8 523.3,135.3 529.6,133.6 529,130.1 527.5,128.6 521.7,127.1 
		520.3,124.8 514.6,125.7 515.4,124.1 512.9,122.3 508.1,120.5 504.5,122 498.2,123 500.5,120.6 498.9,116.9 490.8,118.4 
		485.8,121.3 485.6,119 489.6,116.8 481.8,117.7 477.7,119.2 472.8,122.4 470.5,126 474.4,126.1 470.1,127.7 471.4,129 475.5,129.6 
		480.6,130.6 490.2,131.5 495.7,131 498,129.9 499.4,131.2 501.7,131.4 503.1,133.7 500.6,134.7 505.6,135.9 508.8,137.8 
		509.2,139.1 508.9,140.8 502.9,144.5 500.6,146.4 500.8,147.8 494.3,148.3 488.8,148.4 485,151.3 486.7,152.6 495.7,152 
		496.4,150.9 499.7,152.8 502.9,154.8 501.3,155.9 503.9,157.9 509.2,160.2 516.7,161.8 516.9,160.4 515,157.9 512.5,154.5 
		518.4,157.7 521.7,158.8 524.2,155.9 524.2,152 523.5,151 520.5,149.2 518.6,146.9 520.2,144.7 524.2,144.2 526.9,148 529.7,149.6 
		537.2,145.1 539.5,142.4 	"/>
	<polygon class="st0" points="533.9,226.2 535.5,226 537.9,222.2 537.6,219.5 537.8,217.2 535.2,217.9 537.2,214.7 534.2,213.4 
		532.3,214.5 529.6,213.3 531.2,211.8 529.2,210.9 526.6,212.3 530,208.5 532.7,205.9 533.7,204.7 532.2,204.5 528.8,206 
		525.9,208.4 520.2,215.3 516.5,217.9 517.6,219.1 515,220.6 515.1,221.9 521.8,222 525.6,221.8 528.6,222.8 525.6,224.9 527.6,225 
		532.7,221.2 533.5,221.8 531.8,225.3 	"/>
	<polygon class="st0" points="476.9,153.3 474.5,153.6 475.4,151.7 472.8,150.5 470.5,149.2 469.4,148.2 467.5,148.8 468.1,147 
		466.2,146.7 462.7,150.3 460.2,153.4 456.2,155.4 460.6,154.9 460.1,157.3 465.8,155.2 470.1,153.1 470.7,154.9 474.8,155.8 
		478.2,154.6 	"/>
	<polygon class="st0" points="473.5,161.2 473.3,161.4 473.3,162.6 474.5,163 477,160.9 476.7,160 475.5,160 	"/>
	<polygon class="st0" points="280.7,193.7 279.4,195.1 278.4,196.9 279.1,198.2 278.6,200.2 279.1,202.2 280.5,202.2 280.3,198.7 
		285.3,193.9 281.9,194.3 	"/>
	<polygon class="st0" points="490.8,98.1 487.8,98.9 486.3,100 487.4,101.4 492.1,101.8 496.9,101.5 504.2,99.1 508.7,98.2 
		506.9,97.2 507.3,95.2 504,94.7 500.7,94 499.6,92.5 493.9,92.6 494.1,93.3 491.3,93.5 488.5,94.4 485.1,95.7 484.8,97 486.2,98.1 
			"/>
	<polygon class="st0" points="508.5,215.4 508.6,214.6 505.7,212.8 501.6,211.7 500.3,212.1 502.7,214.1 506.7,215.4 	"/>
	<polygon class="st0" points="293.1,218.6 295.2,217.9 295.3,215.6 293.1,213.8 292.8,211.7 292.8,210.3 289.9,209.8 288.2,209.1 
		285.3,208.2 284.4,209.2 284,211.5 287,212.3 286.7,213.5 288.7,215.1 288.7,216.6 	"/>
	<polygon class="st0" points="428.6,344.5 431.2,344.3 433.9,343.8 434.4,342.7 431.7,340.9 428.9,340.7 429.3,339.5 427.2,338.6 
		425.8,338.6 423.7,336.6 420.8,333.8 419.5,332.8 415.9,333.3 414.6,331.7 411.2,330.2 408.1,330.1 404.9,329.8 403.9,330.3 
		401,330.7 398.9,331.6 397,332.6 395.9,334.2 393.8,335.6 395.3,336 397.3,335.5 398,334.4 399.6,334.3 402.6,332 406.4,332.2 
		404.8,333.3 406.1,334.3 410.9,334.9 412,335.9 415.4,337 417.6,336.9 418.2,339.4 419.4,340.7 421.8,341 423.3,342.1 420.4,344.6 
		426,344.2 	"/>
	<polygon class="st0" points="456.3,350.1 454.5,348.5 452.9,348.4 453.1,347 451,347.1 450.4,345.6 449.4,345.6 447.3,344.5 
		444.2,344.4 443.6,345.2 443.6,345.2 440.4,344.5 438,344.4 437.1,345.6 439.4,346.3 439.2,347.9 440.8,349.9 439.3,350.9 
		436.4,350.5 432.9,349.9 432.4,351.4 434.3,352.7 436.2,351.9 438.5,352.2 440.4,351.9 442.9,352.7 442.9,353.9 443.9,354.6 
		445.7,351.6 447.1,350.9 447.5,352.1 449.1,351.8 449.9,350.9 451.1,351.2 452.9,351 454.7,351.9 	"/>
	<polygon class="st0" points="690.1,91.2 683.1,90.7 671.3,91.7 664.9,92.8 668,91.2 666.4,90.2 661.5,91 654.7,90 646.3,90.4 
		645.3,89.9 658.1,89.6 667.1,89.5 671.7,88.5 657.9,86.5 639.8,86.2 631.5,86.4 628,87.3 620,87.2 611.1,88.7 610,89.9 614.7,91.4 
		610.4,90.5 607.2,90.3 602.3,89.3 594.9,90.7 593.1,89.9 585.8,89.9 578.2,90.3 572,91 571.8,92.3 568.1,92.6 557.9,94.7 
		554.7,95.8 560.4,96.9 558.4,98 548,99.5 537.2,101.1 535.6,102.3 540.1,103.7 550.2,104.5 545,104.6 537.4,105.7 540,107.9 
		542.1,108.9 548.7,108.7 555.8,108.6 561.1,108.8 566.6,110.8 565.7,112.3 568.2,113.6 569.2,117.3 569.9,119.8 570.8,121.1 
		565.9,124.5 567.8,125.4 570.8,124.8 572.7,126.1 576.4,128.5 571.1,127.5 568.5,127.5 566.4,129.4 565.3,132 568.3,133.2 
		571,132.7 572.9,132.1 576.7,130.8 574.8,133.7 572.9,135.3 568,136.7 563.1,141.1 564.5,142.5 562.1,145.3 564.7,148.9 
		563.6,152.4 564.1,155 567.5,160 568,163.9 570.2,166.1 576.4,166.1 579.9,169.4 584.5,169.2 587.3,165.2 589.8,161.9 589.6,158.8 
		595.6,155.6 597.9,153 598.9,150.3 602.1,147.8 606.7,146.9 610.9,145.9 613,145.8 620.2,143.1 625.3,139.1 628.7,137.6 
		631.9,137.5 640.6,136.3 649.1,133.3 657.4,130.1 653.5,129.9 646.1,129.7 649.8,127.8 649.5,125.2 652.4,127.3 654.3,128.8 
		659.4,128.1 659,125.1 655.9,122.9 652.4,122 654,121.1 659.1,122.5 659.4,120.9 656.5,118.5 660.3,118.5 664.2,118 665.4,116.7 
		662.6,115.3 668.6,115 665.8,112 668.7,111.7 668.8,108.8 664.4,107 668.9,105.9 673,105.8 670.5,103.6 671.2,100 673.7,98 
		677.2,95.8 671.6,95.6 679.5,95.1 681,94.4 691.2,92.4 	"/>
	<polygon class="st0" points="420.4,350.7 419.6,350.5 417.9,350.8 417.4,351.9 419.4,353.5 421.5,354.2 422.7,353.5 425.5,353.4 
		424.9,352.1 423,351.1 	"/>
	<polygon class="st0" points="202.6,156 202.9,156.8 204,157.6 207.5,156.8 208.3,156.3 206,155.8 204.9,154.7 202.5,155.1 
		201.6,154.4 199.4,155.9 199.7,156.3 	"/>
	<polygon class="st0" points="198,170.6 200.8,170 202.4,168.3 200.3,168 196.4,168.7 196.9,169.8 	"/>
	<polygon class="st0" points="121.7,344 121.2,343.6 119.9,342.8 119.6,342.8 119.3,343.2 119.3,344.1 118.5,344.8 118.2,345.3 
		118.5,346.9 118,348.2 118.9,348.8 119.6,348 121,347.4 122.7,346.4 122.9,346.1 122.2,344.6 	"/>
	<polygon class="st0" points="228.4,178.5 223.9,180 222.4,181.9 222.9,183 227.8,181.4 232.6,179.5 232.6,178.2 230.8,177.9 	"/>
	<polygon class="st0" points="119.6,340.6 118.7,339.9 117.5,339.5 117,339.8 117,340.1 117.3,340.5 117.8,341.4 119.2,341.1 	"/>
	<polygon class="st0" points="112.8,336.3 111.6,337 111.7,337.1 112,338.2 113.2,338.3 113.5,338.4 113.8,338.1 113,336.6 	"/>
	<polygon class="st0" points="106.6,334.5 106.3,334.8 107.4,335.6 108,335.2 108.2,334.1 107.3,334 	"/>
	<polygon class="st0" points="115.3,338.6 114.8,339.1 116.9,339.2 117.1,338.7 	"/>
	<polygon class="st0" points="447.3,376.8 447.3,376.9 447.2,377.1 447.4,377.3 447.6,377.6 447.8,377.6 447.8,377.5 447.8,377.4 
		447.5,377 	"/>
	<polygon class="st0" points="476.7,351.7 476.6,351.6 476,352 476,352.1 476.7,351.9 	"/>
	<polygon class="st0" points="481,354.2 480.9,354.2 480.9,354.2 480.8,354.2 480.9,354.6 481.2,354.9 481.3,354.7 481.3,354.4 
		481.2,354.2 	"/>
	<polygon class="st0" points="480.5,357 480.6,357.2 481,357.3 481.1,357.2 481.3,357.1 481.3,357 481.3,356.9 481.2,356.8 
		481.1,356.7 480.9,356.5 480.5,356.9 	"/>
	<polygon class="st0" points="439.4,337.5 439.9,337.3 439.6,337 439.3,337.3 	"/>
	<polygon class="st0" points="436.4,333 436.2,333.1 436.2,333.2 436,333.3 435.7,333.6 435.1,334 435,334.3 435.3,334.1 
		435.7,333.7 436.2,333.5 436.9,332.7 436.8,332.1 436.9,331.8 436.5,331.9 436.4,332.1 436.4,332.3 436.6,332.6 436.6,332.7 	"/>
	<polygon class="st0" points="432,329.8 431.9,329.9 432.2,330.1 432.8,330.3 433.2,331.2 433.2,331.1 433.2,330.6 432.9,330.3 
		432.5,330 432.5,329.2 432.2,328.7 432.1,328.2 431.8,327.7 431.8,328 431.9,328.1 432,328.5 432.2,329.2 432.3,329.4 432.2,329.7 
			"/>
	<polygon class="st0" points="440.1,333.4 440.4,333.5 440.8,333.8 441,333.6 440.9,333.6 440.6,333.3 440.2,333.3 440.1,333.3 
		439.9,333.2 439.6,333.1 439.4,333.4 439.6,333.5 	"/>
	<polygon class="st0" points="435.3,325.7 435.1,325.7 434.9,326.4 435.1,326.4 435.5,325.9 435.4,325.7 	"/>
	<polygon class="st0" points="435.7,331.7 435.5,331.5 435.3,331.4 435.2,331.5 435.2,331.7 435.3,331.9 435.4,331.9 436,332.2 
		436.2,331.9 436.1,331.9 	"/>
	<polygon class="st0" points="438.9,338.7 438.5,338.9 438.3,338.9 437.8,338.7 437.4,338.7 437.1,339 436.7,339.1 436.8,339.1 
		436.8,339.3 436.7,339.5 436.7,339.6 436.7,339.8 437.8,339.8 438.7,339.6 439.2,339 439.3,338.7 439.4,338.2 439.2,338.2 	"/>
	<polygon class="st0" points="426.2,314.1 426,314 425.8,313.6 425.5,313.3 425,313.2 424.6,313.2 424.3,313.1 423.9,313.3 
		424.5,313.3 425.5,313.5 426,314.6 426.4,314.8 426.5,315.1 426.3,315.4 426.3,315.7 426.1,316 426,316.6 425.8,316.9 425.3,317.2 
		425.6,317.3 425.8,317.8 426,317.7 426.1,317.5 426.4,316.2 426.9,315.8 427,315 426.7,314.6 426.4,314.5 426.3,314.3 426.4,314.2 
			"/>
	<polygon class="st0" points="423.9,314.2 423.8,314 423.2,314.1 422.5,314.1 422.4,314.2 422.1,314.2 421.7,314.1 421.4,313.8 
		421.2,314.1 421.2,314.1 421.1,314.3 420.8,314.6 420.4,314.7 420,314.3 419.8,314.2 420.4,315 420.6,315 420.9,315 421.5,314.8 
		422.6,314.5 423.8,314.3 	"/>
	<polygon class="st0" points="421.7,324.6 421.8,324.9 422,324.7 422.4,324.5 422.5,324.4 423,324.1 423,324 423.1,323.6 
		423.2,323.1 422.8,322.7 422.6,322 422.5,321.7 422.5,321.4 422.3,321.1 421.9,320.8 421.7,320.9 421.8,321.7 421.6,322.1 
		421.1,322.9 421.1,323.1 421.2,323.3 420.9,323.6 420.9,323.4 420.4,323.4 420.7,323.8 421.1,324.1 421.3,324.1 421.5,324 
		421.5,324.3 	"/>
	<polygon class="st0" points="423.2,327.3 423.5,326.8 423.5,326.6 423.5,326.5 423.5,326.4 423.5,326.2 423.5,325.6 423.3,325.2 
		423,325.7 422.7,325.4 423.2,325.2 423.2,325.1 423,324.9 422.8,325 422.5,325 422.3,325.1 422.1,325.1 421.8,325.2 422.1,325.8 
		422.3,326 422.4,326.7 422.5,326.8 422.5,327.3 	"/>
	<polygon class="st0" points="431.1,323.1 430.9,323.1 430.9,323.1 430.8,323.3 431.1,323.6 431.1,323.8 431.3,324 431.6,324.8 
		431.8,325 431.8,325.2 431.5,325.4 431.4,325.6 431.5,325.6 431.9,325.5 432.2,325.5 432.2,325.3 431.5,324.3 431.5,324.2 	"/>
	<polygon class="st0" points="429.4,320.9 428.9,320.3 428.4,320.1 427.8,319.6 427.6,319.2 427.6,319.3 427.5,319.6 427.3,319.9 
		427.6,319.8 427.9,319.9 428.3,320.2 428.8,320.3 429,320.8 429.5,321.2 429.5,321.6 429.2,322 429.1,322.5 428.7,322.6 
		428.8,322.7 429,322.9 429,323.1 429.2,323.3 429.2,322.8 429.4,322.2 429.7,321.3 429.6,321.1 	"/>
	<polygon class="st0" points="429.2,327.7 429,328 429.3,328 429.9,328.5 430.2,328.7 430.4,328.7 430,328.5 429.9,328.2 
		429.4,327.8 	"/>
	<polygon class="st0" points="424.2,321.5 424.1,321.6 424.1,321.7 424.4,321.7 424.8,321.7 425.2,321.5 425,321.4 424.5,321.4 	"/>
	<polygon class="st0" points="478.6,289 478.5,289 478.1,289.3 477.7,289.5 477.8,289.5 477.9,289.5 478.3,289.4 	"/>
	<polygon class="st0" points="488,373.7 488,374.4 488.1,374.6 488.4,374.8 488.6,374.7 488.8,374.4 488.6,374.2 488.2,373.6 	"/>
	<polygon class="st0" points="411.4,345.3 411.4,345.3 411.3,345.3 411.2,345.4 411.2,345.4 411.3,345.4 411.6,345.3 411.8,345.3 
		411.7,345.2 411.6,345.2 	"/>
	<polygon class="st0" points="406.5,346.9 406.3,347 406.2,346.9 406.1,346.7 406.1,346.8 406.1,347.2 406.4,347.2 406.5,347.2 
		406.8,347 407.2,347 407.1,346.9 406.5,346.8 	"/>
	<polygon class="st0" points="412.5,345.1 412.4,345.1 412.1,345.3 412.2,345.3 412.3,345.2 412.7,345.1 412.6,345 412.6,345 	"/>
	<polygon class="st0" points="482.3,363.9 482.2,363.6 481.6,363.4 481.6,363.5 481.6,363.9 481.8,364.4 481.8,365.2 482.2,365.1 
		482.4,364.6 	"/>
	<polygon class="st0" points="517.5,660.2 517.6,660 517.5,659.8 517.2,659.7 516.8,659.7 517,660 517.1,660.2 	"/>
	<polygon class="st0" points="523.9,662.8 523.8,662.9 524,663.1 524.2,663.2 524.1,662.8 	"/>
	<polygon class="st0" points="525.4,661.1 525.1,661 525.2,660.8 525.5,660.7 524.9,660.3 524.7,660.2 524,660.3 523.8,660.3 
		523.8,660.5 523.9,660.7 524.1,660.9 524.2,661 524,661 523.3,660.7 523.1,660.6 523,660.3 523.1,660.3 523.3,660.3 523.4,660.1 
		523.1,659.9 522.8,659.8 522.2,659.9 521.7,659.7 521.4,659.7 521.7,660 521.1,660.6 521.2,661 521.5,661.3 521.5,661.4 
		521.5,661.5 521.2,661.6 521,661.7 520.8,661.9 520.2,662.5 520.3,662.6 520.1,663.1 520.3,663.3 520.8,663.8 521.4,664.1 
		521.4,663.6 521.7,663.5 521.9,663.7 522.2,663.5 521.6,662.8 521.8,662.8 523.5,663.2 523.5,662.9 523.4,662.8 523.2,662.5 
		524.2,662.2 524.6,662 524.7,661.8 525.2,661.7 525.7,661.5 525.6,661.4 525.7,661.2 	"/>
	<polygon class="st0" points="519.9,663.4 519.8,663.3 519.8,663.5 519.9,663.7 520,663.8 520.1,663.9 520.3,663.7 520.2,663.5 	"/>
	<polygon class="st0" points="519.9,661.2 520.1,661 520.2,660.9 520.3,660.7 520.5,660.5 520.5,660.3 520.2,660.2 520,660 
		519.8,660.3 519.6,660.2 519,660.4 518.7,660.4 518.5,660.3 518.2,660.2 518,660.3 517.6,660.6 517.1,660.5 516.4,660.3 516.1,660 
		515.9,660 516.2,660.3 516.3,660.5 516.4,660.6 516.8,660.8 517.2,661 517.5,661.2 517.4,661.3 516.8,661.5 516.6,661.5 
		516.5,661.6 516.8,661.7 517.2,661.7 517.3,661.6 517.5,661.6 517.7,661.7 517.7,661.8 517.6,661.9 517.5,662.1 517.2,662.3 
		516.8,662.6 516.2,662.6 515.7,663.1 516.4,663.4 516.8,663.6 517.5,663.6 517.5,663.5 517.6,663.5 517.8,663.5 517.9,663.4 
		518,663.1 518,662.7 518.2,662.7 518.4,662.8 518.9,662.7 519.1,662.6 519.5,662 519.8,661.4 	"/>
	<polygon class="st0" points="515.4,661.9 515.1,661.9 515,662 514.7,662.1 514.9,662.3 515.3,662.6 515.6,662.6 515.7,662.4 
		515.6,661.9 	"/>
	<polygon class="st0" points="479.6,379.4 480,379.3 480.1,378.5 479.9,378.5 479.7,378.7 479.5,379 479.5,379.3 479.3,379.5 	"/>
	<polygon class="st0" points="477.7,356.1 477.6,356 477.4,355.8 477.2,355.5 477,355.6 477,355.7 477,355.8 477.2,356 477.4,356 
		477.6,356.3 477.7,356.3 	"/>
	<polygon class="st0" points="478.1,356.7 478.1,356.5 477.9,356.4 477.7,356.4 477.7,356.7 477.9,356.9 	"/>
	<polygon class="st0" points="483.3,371.4 483.4,370.6 483.3,370.2 483.2,370.3 483,370.6 482.7,371 482.6,371.2 482.6,371.6 
		483,371.9 	"/>
	<polygon class="st0" points="479.3,358.1 479.1,358.4 479.1,358.6 479.3,358.7 479.4,358.5 479.3,358.1 	"/>
	<polygon class="st0" points="229.4,540.9 229.3,541 229.4,541.2 229.5,541.3 229.6,541.3 229.6,541.2 229.5,541 	"/>
	<polygon class="st0" points="466.7,352.3 466.8,352.4 466.9,352.4 467.2,352.4 467.7,352.3 467.7,352.2 467.5,352.1 467,352.1 	"/>
	<polygon class="st0" points="460.3,352.9 460.5,353 461,353 461.2,353 461.4,353.1 461.7,353 462,352.9 462.6,353 463,352.9 
		463.4,353.1 463.7,353 463.8,353.1 464,353.1 464.5,353.1 465.1,353 465.6,352.6 465.8,352.3 466.1,352.1 466.5,351.8 466.5,351.2 
		466.1,351.1 465.6,350.9 464.9,350.8 464.8,350.8 464.9,350.9 464.8,350.9 464.7,350.9 464.6,350.7 464.5,350.7 462,350.7 
		461.1,350.5 460.9,350.6 460.7,350.7 460.6,350.9 460.5,351.1 460.3,351.2 460.3,351.4 460.4,351.6 460.5,351.9 460.5,352.2 	"/>
	<polygon class="st0" points="457.5,352.3 457.5,352.4 457.5,352.5 457.7,352.6 457.7,352.6 457.7,352.6 457.8,352.6 457.8,352.5 
		457.9,352.4 457.9,352.3 457.8,352.3 457.6,352.3 	"/>
	<polygon class="st0" points="133.1,507.3 133.1,507.3 133.1,507.8 133.3,507.9 133.5,507.8 133.6,507.8 133.3,507.4 	"/>
	<polygon class="st0" points="133.1,506.6 132.8,506.5 132.9,506.7 132.9,506.9 133.1,506.9 133.1,506.7 	"/>
	<polygon class="st0" points="139.8,510.5 139.8,510.6 139.9,510.8 140,510.8 140.2,511 140.3,510.8 140.3,510.6 140.2,510.5 	"/>
	<polygon class="st0" points="142.3,511.5 142.1,511 141.9,510.7 141.4,510.6 141,510.8 141,510.9 141,511.2 141.4,511.7 
		141.7,511.7 142.3,511.7 142.6,512.1 142.7,512.2 143,512.2 143.1,512 142.9,511.7 	"/>
	<polygon class="st0" points="155.6,505 155.5,504.7 155.2,504.3 155.3,504.6 155.3,504.7 155.5,504.8 155.6,505.1 155.7,505.3 
		155.9,505.5 156,505.5 156,505.5 155.8,505.2 	"/>
	<polygon class="st0" points="190.2,514.1 190.7,514.4 190.4,514.1 	"/>
	<polygon class="st0" points="186.8,525.2 186.7,525.2 186.8,525.3 186.9,525.5 186.9,525.6 187,525.6 186.9,525.4 	"/>
	<polygon class="st0" points="193.1,515 192.9,515 192.8,514.9 192.7,515 192.8,515 192.9,515 193.1,515.2 193.3,515.2 193.5,515.3 
		193.3,515.2 	"/>
	<polygon class="st0" points="172.5,472.3 172.5,472.1 172.5,472 171.8,471.9 171.8,471.9 171.8,472.2 171.9,472.6 172.1,472.6 
		172.5,472.5 	"/>
	<polygon class="st0" points="175.5,511.6 175.3,511.7 175.3,511.9 175.2,512.1 175.3,512.2 175.3,512.3 175.5,512.3 175.4,512.2 
		175.3,512.2 175.3,512 175.5,511.7 175.9,511.5 175.9,511.4 175.7,511.5 	"/>
	<polygon class="st0" points="176,514.3 176,514.5 176.3,514.6 176.4,514.7 176.4,514.5 	"/>
	<polygon class="st0" points="175.3,513.4 175.2,513.2 175,513.1 175,513.2 175.3,513.5 175.5,513.8 175.7,513.8 175.6,513.7 	"/>
	<polygon class="st0" points="176.7,476.9 176.6,477 176.6,477.3 176.9,477 176.8,476.9 	"/>
	<polygon class="st0" points="178.5,479.2 178.6,479.7 178.8,479.6 178.8,479.5 178.8,479.3 178.8,479.3 	"/>
	<polygon class="st0" points="156.7,502.9 156.8,503 157.2,503.4 157.2,503.5 157.2,503.3 156.8,502.9 	"/>
	<polygon class="st0" points="176.9,475.9 176.4,476.3 176.5,476.5 176.8,476.6 176.9,476.5 177.5,476.4 177.7,476.1 177.5,476.2 	
		"/>
	<polygon class="st0" points="174.3,472.2 174.3,472.3 174.2,472.4 174.3,472.6 174.5,472.6 174.7,472.5 174.7,472.4 174.6,472.3 	
		"/>
	<polygon class="st0" points="172.4,474.4 172.4,474.6 172.6,474.9 172.7,474.7 172.8,474.4 172.7,474.3 	"/>
	<polygon class="st0" points="167.3,504.4 167.4,504.1 167.2,504.1 	"/>
	<polygon class="st0" points="163.2,506.6 163,506.6 163.5,506.8 163.7,506.8 163.5,506.7 	"/>
	<polygon class="st0" points="164,506.7 163.8,506.7 163.7,506.7 164.1,506.8 164.4,506.9 164.2,506.7 	"/>
	<polygon class="st0" points="476.5,352.8 476.5,352.7 476.5,352.6 476.1,352.6 476.3,352.7 	"/>
	<polygon class="st0" points="445,336 444.8,335.9 444.3,335.7 444.2,335.8 444.2,336 444.6,336 444.8,336.1 	"/>
	<polygon class="st0" points="442.9,336.1 443,336 443,335.9 442.7,336 442.3,335.7 442.2,336 442.2,336.1 442.4,336.2 442.8,336.1 
			"/>
	<polygon class="st0" points="443.7,335.6 443.8,335.7 444,335.9 444.1,335.8 444,335.7 443.9,335.3 443.6,335.3 443.6,335.4 
		443.6,335.6 	"/>
	<polygon class="st0" points="46.3,526.9 46.2,526.9 46,526.7 45.7,526.7 45.5,526.6 45.5,526.5 45.4,526.7 45.5,526.9 46.2,527.2 
		46.4,527.3 46.5,526.9 46.5,526.8 46.3,526.8 	"/>
	<polygon class="st0" points="47.2,527.7 47.2,527.9 47.5,528.2 47.4,527.5 	"/>
	<polygon class="st0" points="47.8,515.4 47.6,515.7 47.6,515.8 47.8,515.9 47.9,515.9 48,515.7 48.1,515.6 48.1,515.5 47.8,515.4 	
		"/>
	<polygon class="st0" points="484,382.8 484.1,382.5 483.9,382.5 483.4,382.7 483,383.1 483,383.2 483.2,383.1 	"/>
	<polygon class="st0" points="482,385.5 482.1,385.2 482.5,384.7 481.8,384.7 481.4,384.8 480.7,384.9 480.3,385 479.8,385.1 
		479.5,385.2 479.6,385.3 480,385.5 480.1,385.6 480.2,385.7 480.2,386 480,387.2 480,387.3 479.5,387.3 479.4,387.5 478.4,388.1 
		479,388 479.6,388.1 481.3,388 481.9,387.8 482,387.7 482,387.3 482.1,387 482,386.7 481.9,386.3 482,385.9 	"/>
	<polygon class="st0" points="481.7,375 481.7,375 481.7,375.1 481.6,375.1 481.7,375.2 481.8,375.1 481.8,375 481.9,374.9 
		481.8,374.8 481.8,374.9 	"/>
	<polygon class="st0" points="481.3,376.4 481.3,376.4 481.2,376.4 	"/>
	<polygon class="st0" points="482.2,374.2 482.3,373.8 482.2,373.5 482.1,373.5 481.8,373.6 481.7,373.8 481.6,374.1 482,374.3 	"/>
	<polygon class="st0" points="481.3,376.3 481.3,376.4 481.4,376.4 481.4,376.3 481.4,376.2 481.3,376.2 	"/>
	<polygon class="st0" points="470.8,350.9 470.7,350.9 470.4,350.9 470.2,351 470.2,351.1 470.6,351.1 	"/>
	<polygon class="st0" points="471.2,350.7 471.2,350.8 471.3,350.8 471.4,350.8 471.6,350.5 471.3,350.6 	"/>
	<polygon class="st0" points="471.9,349.7 471.9,349.5 471.8,349.5 471.4,349.5 471.5,349.6 471.7,349.6 	"/>
	<polygon class="st0" points="470.3,351.3 470,351.2 469.8,351.4 470,351.4 	"/>
	<polygon class="st0" points="469.6,351.4 469.4,351.2 469.2,351.2 468.9,351.2 469.3,351.4 	"/>
	<polygon class="st0" points="470.4,353.9 470,353.9 469.7,353.7 469.2,353.9 469.1,354.2 469.9,354.2 	"/>
	<polygon class="st0" points="482.7,367.8 483,368 482.8,368.3 482.8,368.3 482.8,368.5 483.5,368.5 483.6,368.8 483.7,368.7 
		483.7,368.4 483.6,367.9 483.5,367.8 483.4,367.6 483.5,367.4 483.5,367.3 483.3,367.3 483.1,366.9 482.7,366.7 482.5,366.7 
		482.3,366.9 482.3,367.1 482.5,367.7 	"/>
	<polygon class="st0" points="481.6,360.7 481.9,360.8 482.4,360.7 483,360.6 482.3,360.2 482.2,359.9 482.2,359.7 481.9,359.5 
		481.8,359.6 481.7,359.8 481.8,360.2 481.6,360.4 	"/>
	<polygon class="st0" points="482.6,362.3 482.8,362.1 482.8,361.9 482.6,361.7 482.5,361.8 482.3,362 482.3,362.2 482.4,362.3 	"/>
	<polygon class="st0" points="481.4,360.7 481.5,360.5 481.4,360.4 481.2,360.3 480.8,360.2 480.7,360.2 480.6,360.4 480.7,361.5 
		480.8,361.8 480.9,361.9 481.3,361.7 481.4,361.6 	"/>
	<polygon class="st0" points="454.1,379.4 454.3,378.9 454.3,378.5 453.7,378.2 453.7,378.4 453.8,378.5 454,378.6 454,378.7 
		454,379.2 	"/>
</g>
</svg>
