<?xml version="1.0" encoding="utf-8"?>
<!-- Generator: Adobe Illustrator 22.0.0, SVG Export Plug-In . SVG Version: 6.00 Build 0)  -->
<svg version="1.1" id="Capa_1" xmlns="http://www.w3.org/2000/svg" xmlns:xlink="http://www.w3.org/1999/xlink" x="0px" y="0px"
	 viewBox="0 0 1366 768" style="enable-background:new 0 0 1366 768;" xml:space="preserve">
<style type="text/css">
	.st0{fill:#F355FF;}
</style>
<g>
	<polygon class="st0" points="484.2,562.2 480.1,558.7 478.2,569 479.6,578.1 482.4,583.2 487.2,581.7 489.5,579.9 490.1,573.3 
		487.1,566.7 	"/>
	<polygon class="st0" points="236.4,180.6 244.3,182 246.5,184.3 259.9,185 262.1,184.6 252.2,180.3 249.1,176 252.4,171.1 
		255.2,166.1 263.8,161.4 273.6,159 284.9,156.6 286.2,155.1 282,153.2 275.4,153.8 270.5,155.6 258.8,156.5 248.7,159.6 
		241.9,162.3 244.4,164.5 237.8,168.9 241.7,169.6 236.3,173.9 237.9,176.7 234.5,177.8 	"/>
	<polygon class="st0" points="360.7,141.7 368.7,143.4 380.2,144.7 387.3,144.1 382.8,140.1 369.2,136 359.8,133.9 353.6,134.8 
		348.3,137.7 354.1,138.5 	"/>
	<polygon class="st0" points="409.1,146.7 407.6,144.9 395.1,142.3 392.1,142 389.9,142.5 391.1,148.5 	"/>
	<polygon class="st0" points="200.3,208.6 204,205.7 202.4,202.1 198.4,199.5 	"/>
	<polygon class="st0" points="193.4,138.1 197.8,139.1 201.4,138.4 201.5,137.7 204.4,137.4 208.6,136.8 209.5,136.2 203.8,135.3 
		201,136 199.7,137 198.2,135.8 193,135.9 186.8,136.7 194.5,136.8 	"/>
	<polygon class="st0" points="573.9,168.9 573.1,170.9 574.2,171.1 583,171.7 588.8,171.7 586.3,170.3 578,168.4 	"/>
	<polygon class="st0" points="560.4,164.6 564.9,163.4 579.1,163.6 576.1,159.9 558.2,157.3 548,157.1 544.6,158 548,161.4 	"/>
	<path class="st0" d="M817.4,229.4l-3.8-2.3l-4.1-1.6l-9.1-4.6l-8.1-3l6.1,0.4l2-2.5l-32.9-21.9l-9.4-2.3l-15.7-2.6l-7.9,0.3
		l-15.2-1.4l1.8,2.3l8.5,3.4l-2.5,1.8l-14.2-4.8l-6.8,0.6l-9.2-1.1l-7,0.2l-3.9,1.1l-7.2-1.6l-5.1-3.8l-6.5-2.2l-9.2-0.9l-14.7,1
		l-16.1-4l-7.8-3l-40.1-3.4l-2.1,2.2l9.3,4.8l-7.5-0.7l-1,1.5l-9.7-1.6l-5,1.4l-9.3-2.4l3,5.5l-8.9-2.1l-10-4.1l-0.4-2.2l-6-3.3
		l-9.8-2.6h-6.1l-9.3-0.9l4.7,3.9l-17.2-0.8l-3.9-2.3l-13.3-0.9l-5.3,0.8l-0.1,1.3l-5.8-3.2l-2.3,0.9l-7.2-1.2l-5.6-0.7l1.1-1.5
		l6.6-2.8l2.3-1.5l-2.4-2.5l-5.5-1.9l-11.5-2.3l-10.8-0.1l-1.9,1.2l-4.1-2.4l-9.2-0.7l3.4-1.2l-8.2-1.5l-6.1,1.9l-1,2l1.5,2.1
		l-6.9-0.1l-5.3,2.6l-4.3-1.1l-9.3,0.5l0.3,1.3l-9.2,0.7l-4.9,2.4l-4.2,0.2l-1.2,3.3l5.5,2.6l-7.7,0.7l-9.5-0.3l-5.8,1.1l4.8,5.4
		l6.9,4.3l-9.6-3l-7.9,0.3l-5.1,2l4.5,3.8l-4.9-1l-2.1-5l-4.2-2.8l-1.8,0.1l3.6,3.7l-4.6,3.5l8.1,4.2l0.4,5.4l2.9,2.9l4.7,0.5
		l0.4,3.5l4.4,3.1l-1.9,2.6l0.5,2.7l-3.7,1.4l-0.5,2l-5.3-0.8l3.5-7.8l-0.5-3.6l-6.7-3.3l-3.8-7.3l-3.7-3.7L317,181l0.8-4.2
		l-2.9-2.9l-11.3-1.4l-2.1,1l0.5,4.7l-4.3,4.7l1.2,1.7l4.7,4.1l0.1,2.6l5.3,0.5l0.8,1.1l5.8,2.9l-1,2.8l-18.5-6.1l-6.6-1.7
		l-12.8-1.6l-1.2,1.7l5.9,3.1l-2.7,3.6l-6.4-3.2l-5,2.2l-7.6,0.1l-2.1,1.9l-5.3-0.6l2.5-3.3l-3.2-0.2l-12.3,4.6l-7.6,2.6l0.4,3.5
		l-6,1.2l-4-1.9l-1.2-3l5-0.7l-3.6-3l-12.2-1.8l4.3,3.4l-0.8,3.2l4.7,3.3l-1.1,3.8l-4.6-1.9l-4-0.3l-8,5.4l4.2,4.1l-3.2,1.4
		l-0.5,78.4l2.2,2.7l0.2,1.2l6.6,2.2l3.5-1l3.6,2.9l2.9-0.1l7.6,2l0.4,1.9l-1.3,3.2l1.8,3.4l-0.3,2.1l-4.7,0.5l-2.2,1.7l0.4,2.8
		l4.2-1l0.4,1.3l-6.8,2.6l3.2,2.4l-3.2,5.2l-3.4,1l5,3.6l6.2,2.4l7.4,5.1l0,0l2.2,1.9l3,0.7l3.4,2.3l2.1,4.2l-0.3,2.7l-5.5,3.2
		l-4.5-0.6l-5.8,1l-7.8-2.4l-9.7-4.4l-8.5,0.2l-5.7,1.7l-5.6,4l-9.9-0.8l-1.6,4.8l-7.9,0.2l-5.1,6.1l3.6,3l-2,5l4.2,3.6l3.7,6.4
		l5.8-0.1l5.4,3.5l3.6-0.8l0.9-2.7l5.7,0.2l4.6,3.5l8-0.7l3.1-3.7l4.6,1.5l3.2-0.6l-1.7,2.4l2.3,3l-1,2.6l1.1,5l2.4,0.3l1.2,2.5
		l-2.6,2.4l-0.9,3.5v0l-1.4,0.1l-0.4,1.1h-1.8l-0.1,0.1l-0.6,1.6l-0.6,4.8l-1.1,2.9l0.4,0.4l-1.4,2.1l3.9,9.2l0.7,1.7l1.7-10.2
		l-0.4-2.4h0l0.4,2.4l-1.7,10.2l0.3,0.9l-0.5,2.5v2.2l-0.6,3.5h2.7l3.2,4.4l3.7,5.1l2.5,4.7l1.7,1.5l1.7,3.3l-0.2,1.4l2.1,3.7l3,1.3
		l2.8,2.5l3.6,7v3.8l0.9,4.4l4,6.1l2.5,1l4.1,4.4l1.9,5.2l3.2,5.3l3,2.3l0.6,2.5l1.8,1.9l0.9,2.8l2.3-2.1v0l-2.3,2.1l0.4,2.7
		l-0.6,1.3l0.7,2.9l-1.1,0.3l1.7,2.6l1.3,4.7l1,1.9v3.4l1.6,3.8l3.9,0.3l1.8-0.9l2.7,0.2l0.8-1.7l1.5-0.4l1.1-1.7l1.4-0.4l4.7-0.3
		l3.5-1.2l3.1-2.7l1.7,0.4l2.4-0.3l4.7-4.5l8.8-3l5.3-2.7v-2.1l0.9-2.9l3.9-1.7l0,0l2.5-0.3l3.6-2.2l3.1,0.6l2.5-1.8L338,509
		l2.1-1.6h3.4l1.2-1.3l0.2-3.1l3.3-2.4h2.6l0.4-0.8l-1-4.2l0.6-3.2l1-1.5l2.5,0.3l1.7-4.4l2.1-2l0.8-1.8l1.6-3.8l-0.1-1.4l-2.1-0.8
		l-1.6-2.1l-2.9-3.7l-3.3-1.1l-4.1-0.9l-3.3-2.3l-2.9-4.3h-2.8v0h2.8l-1.3-5l0.5-1.2l0.2-2.6l-0.7-0.6l-1.3,2.2l-3,3.9l-3.7,4.1
		l-3.3,4.3l-3.3-0.2l-4.6-0.2l-4.2,1l-0.3-1.7l-1,0.3l-1.2-2.4l0.8-3.8l-0.5-3.7l-1.9-2l-1.4,0.7l-1.1,3.3l0.8,4.7l0,0l-1-1.6
		l-0.9-2.1l-1.7-1.8l-1-2.1l0.4-2.1l-0.6-2.7l-4-2.6l-1.2-2.3l-2.9-1.4l-2.7-5.5h0l-2.4-4.8l0.3-1.5l-1.4-2.8l3.2,0.4l-3.4-3.4
		l-0.5-3.3h-1.7l0.2-4.6l-3.5-4.9l-7-3.4l-4.6-6.1l0.5-5l2.3-2.2l-1-3.8l-3.7-1.9l-4.7-7.8l-2.3,1.1l-0.6-0.5l0.6,0.5l2.3-1.1
		l-3.7-5.2l0.7-2l-2.9-7.3l3.3-1.8l-2.4-1.9l-4.2-1.5v0l4.2,1.5l2.4,1.9v0l-3.3,1.8l2.9,7.3l-0.7,2l3.7,5.2l4.7,7.8l3.7,1.9l1,3.8
		l-2.3,2.2l-0.5,5l4.6,6.1l7,3.4l3.5,4.9l-0.2,4.6h1.7l0.5,3.3l3.4,3.4l1.7-2.5l3.7,2.1l2.8-1l5.1,8.4l4.3,6.1l5.5,1.8l6.1,4.9
		l6.9,2.1l5.1-3.1l4-1.1l2.8,1.1l3.2,7.8l6.3,0.8l6.1,1.5l10.5,1.9l7.6-0.9l8.9-0.1l9.9-1.2l4.9,4.8l2.1,4.6l4.2,1.6l3.2-4.2h12
		l-1.8-5.5l-3.5-3.2l-1.3-4.9l-4-2.9l4.9-6.6l6.4,0.5l4.5-6.7l2.1-6.5l3.9-6.3l-1-4.5l3.7-3.7l-5-3.1l-2.9-4.3l-3.2-5.6l1.9-2.8
		l8.5,1.6l5.7-1l3.7-5.4l0,0l-3.7,5.4l-5.7,1l-8.5-1.6l-1.9,2.8l3.2,5.6l2.9,4.3l5,3.1l-3.7,3.7l1,4.5l-3.9,6.3l-2.1,6.5l-4.5,6.7
		l-6.4-0.5l-4.9,6.6l4,2.9l1.3,4.9l3.5,3.2l1.8,5.5h-12l-3.2,4.2l7.1,5.4l1.9,2.5l-2.4,2.3l8,7.7l4,0.8l7.6-3.8l1.7,5.9l0.8,7.8
		l2.5,8.1l3.6,12.3l5.8,8.8l1.3,3.9l2,8l3.4,6.1l2.2,3l2.5,6.4l3.1,8.9l5.5,6l2.2-1.8l1.7-4.4l5-1.8l-1.8-2.1l2.2-4.8l2.9-0.3
		l-0.7-10.8l1.9-6.1l-0.7-5.3l-1.9-8.2l1.2-4.9l2.5-0.3l4.8-2.3l2.6-1.6l-0.3-2.9l5-4.2l3.7-4l5.3-7.5l7.4-4.2l2.4-3.8l-0.9-4.8
		l6.6-1.3l3.7,0.1l0.5-2.4l0,0l2.2,0.6l1.7,0.7l0.6-1.2l2.5,1.3l1.3-3.5l-0.9-2.6l5.1,0.2l2.8,3.7l1.5,3.1l0.8,3.2l2,3.3l-1.1-5.1
		l0,0l1.1,5.1l4.6,5.2l3.4,0.9l-0.4,2.2l5.4,7.4l1.9,5.9l-0.9,7.9l3.6,1.5l3.2,0.6l5.8-4.6l3.2-3.1l3.1,5.2l2,8.1l2.6,7.6l2.6,3.3
		l0.2,6.9l2.2,3.8l-1.3,4.8l0.9,4.8l0,0l-1.3,6.1l-0.3,3.9l1.2,3.6l0.7-3.8l2.9,3.1l3.2,3.5l1.1,3.2l2.4,2.4l0.9-1.1l0,0L593,580
		l1.4,2.7l-0.4,4.7l2.1,3.4l1,5.3l3.4,4.3l0.8,3.2l6.7,5l5.4,4.8l4-0.5l0.1-2.1l-2.3-5.6l-2.1-1.8l-0.5-3.8l-0.6-2.1l0.5-2.9
		l-0.5-4.3l-2.6-4.3l-3.5-3.8l-1.3-0.6l-1.7,2.6l-3.7,0.8l0,0l3.7-0.8l1.7-2.6l-3.1-3.3l-3.4-0.8l-3.3-3.6l-1.4-5.5l-2.6-5.8
		l-3.7-0.2l-0.7-4.6l1.4-5.6l2.2-9.3l-0.2-7l4.9-0.1l-0.3,5l4.7-0.1l5.3,2.9l-2.1-7.7l3-5.2l0,0l-3,5.2l2.1,7.7l3.4,6.6l2.6,3.3
		l4.7,0.9l4.7-2.5l5.8-0.5l-2.8-3.8l8.9-4.9l-0.1-7.7l-1.8-4.2l-5.2-2.3l0,0l5.2,2.3l1.8,4.2l0.1,7.7l-8.9,4.9l2.8,3.8l-5.8,0.5
		l-4.7,2.5l4.5,3.7l-1.3,4.3l2.3,4l6.6-5.9l4.1-5.3l6.1-4.1l4.3-4.2l-0.4-11.2l-4-11.7l-4.1-5.1l-5.6-4l-6.4-8.3l-5.3-6.7l0.5-4.4
		l3.7-6l6.5-5.5l0,0l2.4-1l7.7,2l-0.9,2.5l2.2,4.6l3-0.4l0.8-6.7l5.6-0.9l7.2-3.2l2.5-3.2l0.8,0.7l-0.1,0.1v0.2l0.3,0.2l0.3-0.1
		l0.3,0.3l-0.9,0.3l-0.1,0.3v0.1l0.2,0.1h0.7l-0.1-0.5l0.2-0.3l0.7,0.7l0.1-0.1l0.2,0.3l0.2-0.1v-0.2v-0.2l-0.1-0.1l0.2-0.2l0.1,0
		v-0.1l2.2-2.3l6.1-0.7l6.6-5.3l6.3-5.9l3.3-7.6l2.3-8.4l2.1-6.9l2.8-0.5l-0.1-5.1l-0.8-5.1l-3.8-2l-2.5-3.4l2.8-1.7l-1.6-4.7
		l-5.4-4.9l-5.4-5.8l-4.6-6.3l-7.1-3.5l0.9-4.6l3.8-3.2l1-3.5l6.7-1.8l-2.4-3.4l-3.4-0.2l-5.8-2.5l-3.9,4.6l-4.9-1.9l-1.5-2.9
		l-4.7-1l-4.7-4.4l1.2-3l5-0.3l1.2-4.1l3.6-4.4l3.4-2.2l4.4,3.3l-1.9,4.2l2.3,2.5l-1.4,3l4.8-1.8l2.4-2.9l6.3-1.9l2.1-4l3.8-3.4
		l1-4.4l0,0l-1,4.4l-3.8,3.4l-2.1,4l3.3,1.7l3.4,0.7l0.8,1l0.4,3.5l1.1,1.2l-0.9,0.7l-0.1,2.9l1.9,1l1.6,0.6l0.8,1.2l1.3-0.5v-1.3
		l3.1,1.3l6.2,5.5l-3.4,1.1l5.2,6.8l1.1,4.8l2.1,3.5l4.5-0.5l3.2-2.7l4.2-1.2l0.5-3.6l-3.4-7.5l-3.3-4.2l-8.2-7.6v0l-4.3-2.8l-2.6-1
		l0.2-0.7l-1.2-2.8l1.3-1.7l2.9-1l1-1.9l0.3-1.1l1.9-1.4l-2.8-4.5l0.3-2.1l0.9-2l2.2,0.3l-1.4-1.1l0,0l-1.9-3.1l0,0l1.9,3.1l1.4,1.1
		l-0.4-2l4-4.5l5.1,3l3.2-0.1l4.4-3.6l1-3.7l2.1-7.1l1.9-7.2l-1.3-4.3l1-9l-5.2-9.9l-5.5-7.3l-1.3-6.2l-4.7-5.1l-12.7-6.7l-5.6-0.4
		l-0.3,3L681,280l-5.7-3.8l-8-0.7l4.9-14.1l3.5-11.5l13.1-1.8l14.9,1l2.5-2.8l7.9,0.8l4.3,4.3l6.4-0.6l8.4-1.6l-7.7-3.5v-9.8
		l9.1-1.9l12.1,7.1l3.6-6.4l-3.2-4.7l4.7-0.5l6.5,8.1l-2.4,4.6l-0.8,6l0.3,7.5l-5.7,1.3l2.8,2.7l-0.1,3.6l6.4,8.3l16,13.4l10.5,8.8
		l5.7,4.3l1.6-5.7l-4.5-6.2l5.7-1.5l-5.4-6.9l5-3.1l-4.7-2.6l-3.4-5l4.1-0.2l-9-8.6l-6.7-1.4l-2.9-2.4l-1.1-5.6l-3.1-3.9l7,0.8
		l1.3-2.5l4.7,2.2l6.1-4.6l11.4,4l-1.7-2.6l2-3.6l1.5-4l3.1-0.7l6.5-4.3l9.8,1.2L817.4,229.4z M451.2,413.7l4.1,0.9v0L451.2,413.7
		L451.2,413.7z M399.7,380.8l-0.6,0.9h0L399.7,380.8l-0.2-2.6l1.7-2.3l0,0l-1.7,2.3L399.7,380.8z M312.2,353.5l-3.8-1.7h0
		L312.2,353.5l4.9,4.9h0L312.2,353.5z M319.6,358.1l-6.2-22.8l0,0L319.6,358.1l5.8-0.1v0L319.6,358.1z M444.7,320.9l10.7,2l0,0
		L444.7,320.9L444.7,320.9z M404.9,370.8l-7.1-2l-5.4,0.5l-0.6-3.7h0l0.6,3.7l5.4-0.5L404.9,370.8l9.5-0.9l0,0L404.9,370.8z
		 M401.3,357.5l-3.2,1.6l0,0L401.3,357.5L401.3,357.5z M383.1,368.9L383.1,368.9l4.4,0.3l0,0L383.1,368.9z M389.5,361.7l6.4-1.5
		l-0.2,2.9l1.3,1.8l2.1-0.2l4.1,0.6l0,0l-4.1-0.6l0,0l-2.1,0.2l-1.3-1.8l0.2-2.9L389.5,361.7L389.5,361.7z M398.6,365.4l-0.9,1.3h0
		L398.6,365.4z M421.5,362.7l-3.2,1.2h0L421.5,362.7l5.7,0.9v0L421.5,362.7z M427.8,359.6l6.4-0.8l0,0L427.8,359.6L427.8,359.6z
		 M435.2,356.4l6.8-3.4v0L435.2,356.4L435.2,356.4z M322.3,299.1L322.3,299.1l6.9,0.3v0L322.3,299.1z M364.9,395.9l0.4-3l0,0
		L364.9,395.9L364.9,395.9z M371.7,384.8l0.1,5.2l-2.5,2l-3.6,0.8l3.6-0.8l2.5-2L371.7,384.8l4.1-1.2l0.3-2.3l0,0l-0.3,2.3
		L371.7,384.8z M379.8,379.2l-7.7-2.7l-6.2-3.2l-4.2-3l-7-4.4l-4.3-6.4l-2-1.2l-5.5,0.3l-2.3-1.3l-1.9-4.9l-7.8-3.3l0,0l7.8,3.3
		l1.9,4.9l2.3,1.3l5.5-0.3l2,1.2l4.3,6.4l7,4.4l4.2,3l6.2,3.2L379.8,379.2l0.8,4h2.9l4.3,1.4l0,0l-4.3-1.4h-2.9L379.8,379.2z
		 M392.9,383.3L392.9,383.3l-3.3,2.1l0,0L392.9,383.3z M395,384.6l0.9-3h0L395,384.6L395,384.6z M411.1,385.9l2.1-0.7l2.5-2.9h0
		l-2.5,2.9L411.1,385.9l-1.5,1.3l0,0L411.1,385.9z M461.8,308.6L461.8,308.6l3.3,4.4l5.7,3.3l8.1,2.3l5.8,5l1.3,7.3l3,2.7l6.4,1
		l7.2,0.9l7.9,3.8l3.4,0.7l4.9,5.7l4.7,3.6h0l-4.7-3.6l-4.9-5.7l-3.4-0.7l-7.9-3.8l-7.2-0.9l-6.4-1l-3-2.7l-1.3-7.3l-5.8-5l-8.1-2.3
		l-5.7-3.3L461.8,308.6z M515,448.7l5.5,2.5l0,0L515,448.7l-0.3-1.2l0,0l2.6-4.8l2.6-1.6l0,0l-2.6,1.6l-2.6,4.8L515,448.7z
		 M519.2,455.6L519.2,455.6l-4.8-2.7l0,0L519.2,455.6z M513.2,442.4L513.2,442.4l-2.8,1.3L513.2,442.4z M517.8,460.6L517.8,460.6
		l-2.4-1.8L517.8,460.6z M523.7,450.2l4.7,0.4l4.4-0.2v0l-4.4,0.2L523.7,450.2L523.7,450.2z M533.9,443.7L533.9,443.7l3.9-4.8l5.3-4
		l0,0l-5.3,4L533.9,443.7z M552.1,350.6l-5.5-0.9l-6.4,0.8l-11.2-1.3l-5.3,0.1l5.3-0.1l11.2,1.3l6.4-0.8L552.1,350.6l9.3,3.8h0
		L552.1,350.6z M551.2,433.8l-3.2,2.6l0,0L551.2,433.8L551.2,433.8z M567.6,354.3l-6,0.1L567.6,354.3l3.2,2l0,0L567.6,354.3z
		 M575.2,353l7.2-2.2l7.5-0.2l4.9-2.2l0,0l-4.9,2.2l-7.5,0.2L575.2,353L575.2,353z M609.7,472.6L609.7,472.6l-4.1,3.4l0,0
		L609.7,472.6z M613.3,330.8l-1.5,0.6L613.3,330.8L613.3,330.8z M604.9,318.4L604.9,318.4l2.4-0.8h0L604.9,318.4z M603.9,336.5
		L603.9,336.5l-5.9-1.3l-3.2-0.5l0,0l3.2,0.5L603.9,336.5z M578.2,495.5l-3.9,0.3v0L578.2,495.5L578.2,495.5z M588.3,482.2l-3.8,1.8
		l0,0L588.3,482.2L588.3,482.2z M592.5,486.4L592.5,486.4l-1.9-7.2l2.7-1l2.7-1.5h0l-2.7,1.5l-2.7,1L592.5,486.4z M612.7,318.6
		L612.7,318.6l2.5-2.3l0,0L612.7,318.6z M591.9,303.4l3.9,2.1l5.5-0.5l7.3,2.3l0,0l-7.3-2.3v0l-5.5,0.5L591.9,303.4l-3.3-0.7l0,0
		L591.9,303.4z M552.1,302.6l6.5,3l4.9,3.1h4.5l6.7,1l0,0l-6.7-1h-4.5l-4.9-3.1L552.1,302.6l-5.4-0.8l0,0L552.1,302.6z M513.6,294.2
		l4.8,0.8l6.6,1.5l3.7,4.6l8.4,2.6l0,0l-8.4-2.6l-3.7-4.6l-6.6-1.5L513.6,294.2l-6.9-2.5l0,0L513.6,294.2z M484.3,301.2l5.1,0.1
		l4.7,2.9l5,0.2l7.9,1.6l0,0l-7.9-1.6l-5-0.2l-4.7-2.9L484.3,301.2l-5.3-1.9l0,0L484.3,301.2z M429.1,299.3l6.2-1.6l3.2,1.1l4.1,3.6
		l3.9,1.2l3.3,2.6l6-0.9l4.3,3.8l0,0l-4.3-3.8l-6,0.9l-3.3-2.6l-3.9-1.2l-4.1-3.6l-3.2-1.1L429.1,299.3l-8.3-3.6l0,0L429.1,299.3z
		 M401.6,283.5l18.1,15.5l0,0L401.6,283.5l-8.3-4.7l0.8-1.9l0,0l-0.8,1.9L401.6,283.5z M363.8,272.8l4.3,6.3l4.3-1.5l7,2.1l1.2,3.3
		l4.4-0.4l0,0l-4.4,0.4l-1.2-3.3l-7-2.1l-4.3,1.5L363.8,272.8l-9-1.3l0,0L363.8,272.8z M351.7,274L351.7,274l-10.8,2.2h0L351.7,274z
		 M339.2,277.7L339.2,277.7l-16.8,2.1l0,0L339.2,277.7z M314.2,297.7l7.3,3.2l0,0L314.2,297.7l-7.6,0.2l0,0L314.2,297.7z
		 M283.8,293.7l11.9,4.3l6.6,2.4l0,0l-6.6-2.4L283.8,293.7l-7.5,0.2l0,0L283.8,293.7z M268.9,305.1L268.9,305.1l-6-3.6l0,0
		L268.9,305.1z M264.1,350.7l2.1,2.5l3.5,1.4l1.5,0.2l4.3,3.8l2.4,0.4l0,0l-2.4-0.4l-4.3-3.8l-1.5-0.2l0,0l-3.5-1.4L264.1,350.7
		l-5.1-1.3l0,0L264.1,350.7z M271.8,358.9L271.8,358.9l-3.2-3.4L271.8,358.9z M266.7,361.2l-0.7,1.5l0,0L266.7,361.2L266.7,361.2z
		 M269.1,364.9l-1,2l0,0L269.1,364.9L269.1,364.9z M269.2,369.6L269.2,369.6l0.2,1l2.8,3.7l0,0l-2.8-3.7L269.2,369.6z M239.8,345.3
		l-4.5-1.1l0,0L239.8,345.3l7.7,1l7.5,2.9l1.1,1.2l0,0l-1.1-1.2l-7.5-2.9L239.8,345.3z M225,390.3l-0.1-3.6l0,0L225,390.3L225,390.3
		z M219.2,418.5l0.7-4.3l0,0L219.2,418.5l1.4,0.7l-1.2,0.8l-0.1,1.7l0,0l0.1-1.7l1.2-0.8L219.2,418.5z M230.3,420.7L230.3,420.7
		l6.1,6.4L230.3,420.7z M238.5,408.9l-9.6,6.7l-6.3-2.5l-0.7,2l0,0l0.7-2h-0.1l0.6-1l-0.2-1.8l0.2,1.8l-0.6,1h0.1l6.3,2.5
		L238.5,408.9l11-6.7l0.9-7.8l-1.2-4.7l2.7-1.6l2.1-4.1h0l2.1-1h0l-2.1,1l-2.1,4.1l-2.7,1.6l1.2,4.7l-0.9,7.8L238.5,408.9l3.1,7.7
		l-0.9,1l0.9-1L238.5,408.9z M338.4,467.6L338.4,467.6l-2.4,1.3v0L338.4,467.6z M295,512.3l3.5-6.7l5-2.9l15.7-2.4l16.1-6.4v0
		l-16.1,6.4l0,0l-15.7,2.4l-5,2.9L295,512.3l-2.5,1l-1.6-2.1l-2.1,0.3l-5.4-0.6l-1-0.7l-6.4,0.2l-1.5,0.6l-2.4-1.7l-1.2,3.1v0
		l1.2-3.1l2.4,1.7l1.5-0.6l6.4-0.2l1,0.7l5.4,0.6l2.1-0.3l1.6,2.1L295,512.3z M286.9,429.9L286.9,429.9l-3.2,6.1l0.5,0.1l-0.5-0.1
		L286.9,429.9z M257.5,361.6l-1.3-2.2h0L257.5,361.6L257.5,361.6z M266.9,369.6L266.9,369.6l-1.8-1.7L266.9,369.6z M269.7,373.7
		l2.5,0.6h0L269.7,373.7z M281.9,373.9l1.2-3.1l-1.9-1.9l0,0l1.9,1.9L281.9,373.9l3.8,3.4l0,0L281.9,373.9z M306.6,387.5l-7.6-1.1
		l-4.3-3.3l-5.2-1.3L287,377l0,0l-0.8-3.2l1.7-1.5l0.4-2.2l-0.1-5l4.2-0.5l-2-1.7l-2.5-0.2l-3.5-4.5L281,355l0,0l-7.3-7.3l-0.4-4.1
		l-5.9-5.9l3.5-6.3l4.6-1.1l1.4-3.7l0,0l4.4-1.3l5-2.7l4.7,1.5l4.9-0.3l1.9,3.9l0.6,6l-4.6-0.9l-4,1l0.9,4.5l-5-0.6l0.6,2l3.2,1.6
		l3.7,5.5l6.4,2.1l1.5,2.1l-0.7,2.6l0.7,1.5l0,0l2.5,4l-0.5-4.5l3.7-1.6l2.4,3.6l4.6,3.7l-4,2l-5.3-1.5l0.1,5.2l3.5,0.4l-0.4,4.4
		l4.5,2.1l0.7,6.8l1.8,4.5l0,0l-0.2,1.6L306.6,387.5z M319.1,383l3-3.7h0L319.1,383L319.1,383z M325.6,379.5l2.1-1.2h0L325.6,379.5
		L325.6,379.5z M378.5,434.5l0.9-1.4h0L378.5,434.5L378.5,434.5z M389.8,431l-0.8-5.4l2.3-3.6h0l-2.3,3.6L389.8,431L389.8,431z
		 M395.3,422l0.2-1.7h0L395.3,422L395.3,422z M403.7,410.6l-1.5,3.8l1.1,3.8l-1.7,1.8h0l1.7-1.8l-1.1-3.8L403.7,410.6l3-1.6l-3-4.2
		h0l3,4.2L403.7,410.6z M408.9,400.2l0.8,2.5l-0.9,2.3h0l0.9-2.3L408.9,400.2l2-2.7l-1.4-3.2l-1.9-2.8l2.4-2.8h0l-2.4,2.8l1.9,2.8
		l1.4,3.2L408.9,400.2z M507.1,453.2l-6.8-1.5l-4.3-0.6l-3.8-3.2l-7.6-0.9l-7.7-3.5l-5.8-3.1l-5.7-2.5l0.9-5.9l2.8-2.9l0,0l1.9-1.5
		l0,0l-1.9,1.5l-2.8,2.9l-0.9,5.9l5.7,2.5l5.8,3.1l7.7,3.5l7.6,0.9l3.8,3.2l4.3,0.6L507.1,453.2l4.6-0.1v0L507.1,453.2z
		 M513.9,465.3l3.7,1.7l0,0L513.9,465.3L513.9,465.3z M521.9,456L521.9,456l1.2,4.4h0L521.9,456z M532.9,468l2.4-0.4l1.6-5.3l0,0
		l-1.6,5.3L532.9,468l-1.1,3.6l0,0L532.9,468z M543.9,479.4l-2.4,1.5l0.5,4.6l0,0l-0.5-4.6l-4.5-10.1h0l4.5,10.1L543.9,479.4
		l-0.9-2.7l0.9-2.1L543,468l0,0l0.9,6.6l-0.9,2.1L543.9,479.4z M550,452.1l0.9,3.6l-2.1,5.4l0.3,3.1l-1.5,5.2l0,0l1.5-5.2l-0.3-3.1
		l2.1-5.4L550,452.1l6.1-4.4l0,0L550,452.1z M560.2,448.8L560.2,448.8l-1.3-3.9l1.6-1.2l-0.9-2.4h0l0.2,0l-0.2,0l0.9,2.4l-1.6,1.2
		L560.2,448.8z M566.7,469.1L566.7,469.1l5.6-1l0,0L566.7,469.1z M590.9,504l0.4-6.7l-3.8-0.3l-0.9-3.8l-2.6-1.9l0,0l2.6,1.9
		l0.9,3.8l3.8,0.3L590.9,504l1,5.7l0,0L590.9,504z M599,507.1l-1.8-1.2l0,0L599,507.1l3.2-0.2v0L599,507.1z M617.7,530.4
		L617.7,530.4l1.5-2.9l-0.5-5.4l-5.2-5.5l-1.3-6.3l-4.9-5.2l-4.3-0.4v0l4.3,0.4l4.9,5.2l1.3,6.3l5.2,5.5l0.5,5.4L617.7,530.4
		l4.9,2.4l0,0L617.7,530.4z M623.9,324.1L623.9,324.1l4.3,0.7l0,0L623.9,324.1z M690.7,357.1l-2.7-3.3l0,0L690.7,357.1L690.7,357.1z
		 M694.3,351.2l-0.1-3.5l0,0L694.3,351.2L694.3,351.2z M700.3,348.1l-3.8-7.3l-4.7-5.3l2.9-2.2l0,0l-2.9,2.2l4.7,5.3L700.3,348.1
		L700.3,348.1z M697.2,313.7l1.3,5.6l-0.4,2.3l2.8,6.8l0.6,6l0,0l-0.6-6l-2.8-6.8l0.4-2.3L697.2,313.7l-6.9,1.8l0,0L697.2,313.7z
		 M674.2,312.2l6,5.8h7.5l0,0h-7.5L674.2,312.2l-8.9-4.5l-9.9-1.9l-6.1-6.1l-4.4-3.7l-3.8-2.7l-7.7-6.1l-5.9-2.3l-8.5-1.8l-6.2,0.2
		l0,0l6.2-0.2l8.5,1.8l5.9,2.3l7.7,6.1l3.8,2.7l4.4,3.7l6.1,6.1l9.9,1.9L674.2,312.2z"/>
	<polygon class="st0" points="751.4,184 745.4,180.4 744,182.6 747.5,184.2 	"/>
	<polygon class="st0" points="593.4,163.8 600.2,164.2 601.3,162.2 589.6,160.9 581.4,160.2 583.1,161.8 	"/>
	<polygon class="st0" points="712.7,292.4 720.5,298.4 726.9,306.7 729.3,311.3 734.8,318.1 738.6,324.1 743.2,329.3 743.1,324.5 
		749.6,328.3 746.6,323.9 737.1,317.6 733.4,308.6 742.3,310.6 728.7,299.7 721.5,293.5 716.4,287.5 709.6,281.7 704.7,277.7 
		703.4,278.5 707.8,281.3 705.9,284.1 	"/>
	<polygon class="st0" points="643.2,493.4 640,493.3 634.2,495.1 632,497.9 633,503.4 637.9,505.4 642.2,502.3 642.8,498.7 
		644.8,495.9 	"/>
	<polygon class="st0" points="626,648.6 627.7,640.6 625.1,636.6 621,636.1 619.1,632.5 618.2,628.1 616.2,627.9 613,625.7 
		615.3,620.5 611,617.6 607.7,612.3 602.9,607.9 597.2,607.8 591.7,601 588.5,598.3 584,594 578.8,587.8 570,586.6 566.4,586.3 
		567,589.5 573.1,596.5 577.5,600.1 580.6,605.6 585.7,609.6 587.9,614.5 589.6,620 594.5,625.3 598.6,634.2 601.3,639 605.4,644.2 
		607.6,648 614.6,653.2 619.1,658.5 625.3,658.4 	"/>
	<polygon class="st0" points="664.9,669.5 663.1,665.4 652.8,662.3 651.5,664.9 640.8,664.3 640.1,662 637.8,661.5 633.4,659.1 
		626.6,658.7 622.5,664.8 627.6,665.2 628.4,668 638.4,670.6 640.8,669.8 644.9,670.4 651.2,672.8 656.4,674 662.2,674.5 
		667.3,674.3 673.2,676.8 679.8,674.4 673.2,670.6 	"/>
	<polygon class="st0" points="700.5,615.4 694,609.5 694.9,606.6 690.6,600.6 693.6,594.8 697.6,592.7 696.4,589.6 700.2,589.2 
		700.5,586.8 695.7,584.8 691.9,583.1 691.5,580.3 688.4,577.1 686.1,577.1 683.6,582.1 679.5,586.5 679.4,589.6 679.3,593.7 
		676.6,593.5 675.5,595.7 672.8,592.4 670.2,596.4 666.4,601.4 659.7,602.8 657.3,604 656.4,609.4 652,610.6 647.9,608.4 
		644.6,612.6 644,618.5 644.8,624.1 647.4,629.5 650.2,631.3 650.9,639.8 655.5,640.6 659.1,640.2 661.1,643.3 667.8,641 670.6,643 
		674.6,643.4 676.6,647.3 683.1,644.4 683.9,646.7 686.4,637 686.7,630.6 692.2,626.3 692,620.5 693.8,616.2 	"/>
	<polygon class="st0" points="729,615.3 722.5,615.6 715.4,614.7 711,612.8 706.3,617.6 705.1,620.2 702.2,629.8 701.3,634.8 
		698.9,639 700.5,643.3 702.8,643.4 703.4,649.5 701.5,655.4 703.8,657.3 707.4,656.3 707.7,647.2 707.5,639.8 711.3,637.9 
		710.6,644.1 714.5,647.8 713.7,650.3 715,652 720.6,649.6 717.6,654.8 719.7,657 722.8,655.1 723.1,651 718.4,643.6 719.5,641.4 
		714.4,633.3 719.4,630.8 722,627.1 724.4,628 724.9,625.1 714.4,627.2 711.3,630.1 706.3,624.5 707.2,619.7 712.1,618.7 
		721.4,618.4 726.8,619.7 731.1,618.4 735.5,612.1 734.5,610.7 	"/>
	<polygon class="st0" points="743,402.6 741.9,405.3 738.6,404.5 737.3,408.3 738.5,411.3 742.7,413.1 742.6,409.4 744.7,407.9 
		747.8,410 749.1,406.1 747.5,403.9 	"/>
	<polygon class="st0" points="765.9,347.7 772.3,346 766.3,339.1 764.6,341.7 760.1,340.4 754.8,338.3 744.4,331.9 746.3,336.7 
		750.6,345.2 745.4,345.6 746,350.3 750.6,356.4 756.3,356.4 754.7,349.6 765.5,353.8 	"/>
	<polygon class="st0" points="771.9,384.6 768.3,377.9 769.6,371.5 766.8,366.3 758.7,357.6 753.9,358.8 754.1,362.7 759.2,369.8 
		760.2,377.7 758.5,380.2 754,386.7 749,383.6 749,395.1 742.7,393.8 733.1,395.7 731.2,400.1 727.3,403.4 726.2,407.4 721.9,409.4 
		725.9,413.7 730,415.6 730.9,421.3 734.4,423.8 736.9,421.1 736.1,410.3 728.8,405.6 734.9,405.5 739.9,402.5 748.5,401.1 
		750.9,405.9 755.5,408.3 759.9,401 769,400.6 774.4,397.6 775,393 772.5,389.8 	"/>
	<polygon class="st0" points="721.9,561.9 723.3,557.9 725.1,555.8 725.1,549.7 721.5,555.8 722,551.6 719,551.9 718.7,555.9 
		717.5,557.7 716.5,559.4 720.3,563.8 	"/>
	<polygon class="st0" points="714,554.7 717.3,552.8 719.7,550.1 719.5,547.5 715.9,547.5 712.4,545.5 713.6,548.5 713.5,551.8 	"/>
	<polygon class="st0" points="698.6,523.1 699.8,525.9 703.1,529.6 703.5,527.3 705.3,528.7 703.8,530.4 703.9,533 706.8,534.4 
		711.8,533.5 715.8,537.3 716.9,534.9 719.4,538.3 724.2,541.4 724.4,538.5 722.4,536.9 722.5,533.5 715,529.9 712.7,530.7 
		709.6,530 707.6,524.9 707.7,519.8 710.7,517.7 711.3,512.4 708.6,507.8 709,505.2 708.3,503.6 706.8,505.2 703.1,503.4 
		699.8,503.4 698.9,509.2 700,519.1 697.4,517.1 	"/>
	<polygon class="st0" points="732.4,543.8 730.6,541.4 725.2,541.3 729.2,546.1 729.5,548.5 726.2,548 727.4,551.9 729.1,552.2 
		729.8,556.7 732.3,555.3 730.6,551.3 730.2,549.2 734.7,550.9 	"/>
	<polygon class="st0" points="705.9,540.3 708.7,543.5 709.5,538 707.3,535.7 702.5,535.5 	"/>
	<polygon class="st0" points="688,567.9 695,561.9 697.6,557.5 701,554 699.5,548.8 697.1,555.1 694.2,559.5 690.4,563.5 	"/>
	<polygon class="st0" points="739.6,567.6 739,565.3 738.2,562.1 733.4,559.1 734.2,564 730.3,564.2 729.6,567 725.4,568.7 
		723.2,565.9 720.4,568.3 717,570 715.1,575.4 716.2,577.3 720.1,573.7 722.8,574 724.3,571.3 728.1,574.3 726.6,577.4 728.5,582 
		735.3,585.7 736.7,582.7 734.6,578 737,574.8 739.5,581.2 741,575.4 740.4,571.9 	"/>
	<polygon class="st0" points="692.4,465 690.5,471.3 692,476 696,481.4 697.3,476.2 698.5,466 698.6,462.1 695.7,460.2 	"/>
	<polygon class="st0" points="212.9,394.8 212.5,395 211.8,395.4 209.5,396.2 208.7,396.3 207.9,396.3 206.9,396.2 206,396 
		206,396.7 205.8,397.3 205.2,397.5 204.9,397.4 204.6,397.3 204.1,397.5 203.7,397.9 203.3,398.2 202.8,397.9 203,398.8 
		203.6,399.9 203.8,400.2 204.1,400.4 205.2,400.7 205.5,400.7 206.1,400.7 206.3,400.8 206.5,401.2 206.9,401.2 206.9,401.1 
		206.9,400.8 207.1,400.6 207.4,400.4 207.7,400.4 208.3,400.3 208.9,400.1 209.4,399.7 210.3,398.7 210.6,398.7 210.9,398.7 
		211.5,398.7 212.1,398.6 211.9,398.2 211.8,398.1 211.4,397.6 211.2,397.2 211.3,396.6 213.8,394.7 214.3,394.2 213.5,394.4 	"/>
</g>
</svg>
