<?xml version="1.0" encoding="utf-8"?>
<!-- Generator: Adobe Illustrator 22.0.0, SVG Export Plug-In . SVG Version: 6.00 Build 0)  -->
<svg version="1.1" id="Capa_1" xmlns="http://www.w3.org/2000/svg" xmlns:xlink="http://www.w3.org/1999/xlink" x="0px" y="0px"
	 viewBox="0 0 1366 768" style="enable-background:new 0 0 1366 768;" xml:space="preserve">
<style type="text/css">
	.st0{fill:#F2F2F2;stroke:#FFFFFF;stroke-width:0.25;stroke-linejoin:round;}
	.st1{stroke:#000000;stroke-miterlimit:10;}
</style>
<path id="HK" inkscape:connector-curvature="0" class="st0" d="M966.9,375.9v-0.2v-0.2l-0.4-0.2h-0.3l0.1,0.2l0.4,0.5L966.9,375.9
	L966.9,375.9z M965.6,375.9l-0.1-0.5l0.2-0.3l-0.9,0.3l-0.1,0.3v0.1l0.2,0.1H965.6L965.6,375.9z M967.2,374.7l-0.1-0.3l-0.2-0.1
	l-0.1-0.3l-0.1-0.2l0,0l-0.3-0.1l-0.2-0.1h-0.4l-0.1,0.1h-0.2l-0.2,0.2l0,0v0.2l-0.5,0.4v0.2l0.3,0.2l0.5-0.1l0.6,0.2l0.8,0.3v-0.2
	v-0.3L967.2,374.7L967.2,374.7z"/>
<g>
	<polygon class="st1" points="196.6,203 199.2,200.2 200.6,201.8 198.9,204.5 199.9,206.1 205.6,207.2 205.7,207.2 208.8,211 
		208,214.5 200.9,213.9 199.9,217.9 202.5,221.2 197.4,223.1 198.7,225.5 206.2,226.5 201.9,227.8 194.6,234.3 197.1,235.5 
		200.6,233.2 205.1,233.9 208.4,231 210.6,232.2 218.9,230.5 225.4,230.6 229.7,227.3 227.8,224.2 230.2,222.4 230.7,218.5 
		224.9,217.3 223.6,215 220.7,208.1 217.5,207.1 213.4,200 213,199.4 208.2,199 212.4,193.7 213.7,188.8 208.7,188.8 204,189.6 
		209,183.2 203.5,183.7 199.9,183.3 196.2,188.1 194.3,194.2 196.5,197.2 	"/>
	<polygon class="st1" points="181.4,225 190.1,221.4 194,216 193.3,211.7 196,207.5 191.1,203.8 187.2,204.1 183.5,206.9 
		176.8,211.6 178.9,217.7 174.7,224.1 	"/>
	<polygon class="st1" points="267.6,291.6 264.8,291.3 266.1,294.9 266.5,302.5 268.6,304.2 270.6,302.1 273,302.5 273.4,294.1 
		270.1,289.7 	"/>
	<polygon class="st1" points="299.8,309.1 294.6,309.8 288.4,309.2 287.8,312.6 295.3,315.9 298,316.6 302.2,319 303.1,315.7 
		302.2,313.7 303.8,308.6 	"/>
	<path class="st1" d="M419.2,245.4l-1.4-2.6l1.3-3.2l-0.4-1.9l-7.6-2l-2.9,0.1l-3.6-2.9l0,0l3.6,2.9l2.9-0.1l7.6,2l0.4,1.9l-1.3,3.2
		L419.2,245.4l3.4-109.1l-5.5,1.1l-4-1.9l-1.2-3l5-0.7l-3.6-3l-12.2-1.8l4.3,3.4l-0.8,3.2l4.7,3.3l-1.1,3.8l-4.6-1.9l-4-0.3l-8,5.4
		l4.2,4.1l-3.2,1.4l-11.4-3.5l-2.1,2.1l3.3,2.4l0.2,2.7l-3.8-1.4l-6-1.7l-1.9-5.8l-1-2.6l-8-4l2.9-0.7l20.1,4.2l6.4-1.5l3.7-2.9
		l-1.6-3.6l-4-2.6l-17.6-6.1l-11.6-1.3l-7.6-3.2l-3.6,1.8l-6.4,2.2l-3.2,0.5l0.4,3.7l7.2,3.7l-2.8,4.1l6.4,6.3l-1.7,4.8l4.9,4.1
		l-0.9,3.7l7.3,3.9l-0.9,2.9l-3.3,3.3l-7.9,7.4l5.3,2.8l-4.5,3.2l0.9,1l-2.6,3.4l2.5,5.5l-1.6,1.9l2.4,1.4l1,2.8l2.1,3.6l5.2,1.5
		l1,1.4l0,0l-1-1.4l-5.2-1.5l0,0l-2.1-3.6l-1-2.8l-2.4-1.4l1.6-1.9l-2.5-5.5l2.6-3.4l-0.9-1l-4.6,0.2l-5.1-1l-5.5,0.9l-5.4,1.6
		l0.9,3.4l3.3,2.1l1.5-0.8l0.1,3.5l-0.2,4.6l-3.6,0.1l-4.4-4.5l-4,2.1l-1.7,3.7l0.5,4.5l0,0l1.7,5h0l-6.3,2l-0.7,2.6l5.9,0.7
		l8.7-0.1v0l0,0l-8.7,0.1l-5.9-0.7l-4.6-0.1l-0.5-1.4l-4.8-1.1l-5.7,2.1l-7.1,2.8l-3.1,1.7l1.4,3.1l-1.2,1.6l2,2.2l1.4,3.3l-0.1,2.1
		l2.3,3.9l2.4,1.9l3.7,0.6l-0.1,1.7l2.7,1.2l0,0l-2.7-1.2l0.1-1.7l-3.7-0.6l-2.4-1.9l-1.2,0.3l1.2-0.3l-2.3-3.9l0.1-2.1l-1.4-3.3
		l-2-2.2l1.2-1.6l-1.4-3.1l-2.4-1.9l-5.5-2.4l-2.5,1.7l-4.7,1.1l-0.1-2.1l-4.9-1.4l-0.2-2.3l0,0l-1.5-3l3.1-4.3l1.4,0.7l1-2.3
		l-2.6-0.9l-0.7-1.6l1.3-2l-0.1-3l-3.6,1.6l-1.5,1.7l-4,0.4l-1.2,1.7l-0.7,1.6l0.4,6.1l2.1,3.4l3.6,0.8h0l-3.6-0.8l0.4,3.4l1.2,2.2
		l-3,3l-1-1.3l-3.9,0.3l-0.9,1.3l-3.9-0.2l-6.5,2.6l-3.9,8.9l-2.5,1.7h0l-3.8,1.2l0.7,2.2l2.2,0.1l2.4,2.4l3.4,2.9h0l-3.4-2.9
		l-2.4-2.4l-2.2-0.1l-0.7-2.2l-4.3,1.2l-1.4,5.1l-11.3,4.8l-4.6-2.6l1.4,7l-8.2-1.6l-6.4,1.3l0.4,4.6l7.5,2.4l3.6,3.1l5.1,6.5
		l-1,12.3L213,276l2,2.4l9.4,2.8l0,0l-9.4-2.8l-2-2.4l-8.2-0.2l-4.2,0.3l-5.4-1h-6.8l-6.2-1.1l-7.4,4.5l2,2.6l-0.4,4.4l1.9-1.6
		l2.1-0.9l0,0l-2.1,0.9l-1.9,1.6l0.1,2.1l0.9,2.2l0.1,2.7l-1.3,3.8l-0.4,2.5l-2.2,2.3l-0.6,4.2l1.2,2.4l2.3,0.6l0.4,4l-1,5.1
		l2.8-0.7l2.7,0.9l2.2-1.7l4.8,1l1.4,3.7l2,2.2l2.5,0.6l2.1-2.5l3.3-2.3l5,0.1h6.7l3.8-5l3.9-1.3l1.2-4.2l3-2.9l-2-3.7l2-5.1
		l3.1-3.5l0.5-2.1l6.6-1.3l4.8-4.2l-0.3-3.5l-6,0.8l-1.3-0.7l0,0l1.3,0.7l6-0.8l0.5-3.7l7.4-2l10,1.6l4.5-3.4l0,0l2.1-0.5l2.8-2.8
		l2.3-0.9l4.2,2.1l2.6,0.7l1.9,6l3.6,3.6l4.9,4l4.2,2.8l3.9,0.4l2.3,2.5l3.4,1.2l1.7,2.7l2.2,0.8l1.8,3.2l2.3,3.7l-1.1,1.3l-0.8,3.5
		l0.1,2l2.1-0.5l2.5-5.6l2.1-0.4l0.4-3.3l-3.9-2.3l1.9-4.1l4.5,1l3.1,3l0.8-2.3l-0.6-1.2l-4.7-3.2l-3.9-1.9l-4.8-2.3l1.4-1.2
		l-1.4-1.4l-4,0.1l-6-5l-2.9-5.1l-4.9-3.1l-1.9-3.1l0.5-1.8l-0.4-3l3.9-2.2l4.1,0.9l-1.4-2.7l0.3-3l-5.8-1.3l5.8,1.3h0l-0.3,3
		l1.4,2.7l-1.1,0.5l3.5,0.2l0,0l-3.5-0.2l-0.2,0.1v2.2l1.7,2l1.3-2.6l3.3,1l0.3,2l2.5,2.6l-1,0.5l4.6,4.5l4.8,1.8l3.1,2.2l5,2.3
		l2.3,1.2l1.6,2.1l1.1,0.4l-0.5-1.9l2-3.1l0,0l-2,3.1l0.5,1.9l1,1l-0.5,1.9l-0.1,4.3l0.7,3l3,2.1l0.2,1.4l1,0.4l2.1-3l0.1-2.1
		l1.6-0.9V292l-2.3-1.6l-0.9-2.6l0.4-2.1l0,0l0,0l0.7-0.2l0-0.2l0,0.4h-0.7l-0.4,2.1l0.9,2.6l2.3,1.6h0v1.6l-1.6,0.9l-0.1,2.1
		l-2.1,3l0.5,1.9l2.9,3.6l2.3,3l1.3,4.3l2.3,5.1l4.6,2.9l3.4-0.1l-2.4-5.7l3.3-0.7l-1.9-3.3l5,1.7l-0.4-3.7l-2.7-1.8l-3.2-3l1.8-1.4
		l-2.8-3l-1.6-3.8l0.9-1.3l3,3.2h2.9l2.5-1l-3.9-3.6l6.1-1.6l2.7,0.6l3.2,0.2l0.3,1.5l1.7,2.7l5.9-5.3l6.1-0.4l0.7-1.5l-5.3-2.1
		l-0.2-2.8l-0.4-0.1l-1.8-2.9l1.3-4.4l2.2-2.5l-3-0.7l-4-2.2l0,0l4,2.2l3,0.7l0.4-7.4l1.6,0.5l2.3-1.3l-0.4-1.6l0,0l3.3-4.6l1.3-3.4
		l4.5-0.8l0.7,2.4l8,1.5l1.7,1.4l-4.5,2.1l-0.7,1.2l5.8,1.8L391,269l3,1.3l6.3-3.6l5.3-1.1l0.6-2.2l-5.1,0.4l-2.7-1.5l-1-3.9
		l3.9-2.3l4.6-0.3l3-2l3.9-0.5l-0.4-2.8l2.2-1.7l0,0l-2.2,1.7l0.4,2.8l4.2-1l0.4,1.3l-6.8,2.6l3.2,2.4l-3.2,5.2l-3.4,1l5,3.6
		l6.2,2.4l0.7-22.5l0.2,0v0l0,0l0.3-2.1L419.2,245.4L419.2,245.4z M185.5,285.3L185.5,285.3l-0.9,0.8h0L185.5,285.3z M230,281.7
		l-3.7-1.8l0,0L230,281.7L230,281.7z M366.9,201.5l1,2.9l-0.6,1.6l3.7,3.9l2.2,1.1l-0.1,1.1l3.4,1.1l1.7,1.6l-1.6,1.3h0l1.6-1.3
		l-1.7-1.6l-3.4-1.1l0.1-1.1l-2.2-1.1l-3.7-3.9l0.6-1.6L366.9,201.5l-4.8-1.4l0,0L366.9,201.5z M340,284.8l-2.8-2h0L340,284.8
		l0.1,0.4L340,284.8z M298.2,256l4.3-0.1l0.9-1.1h0l-0.9,1.1L298.2,256l-2.4,1.4h0L298.2,256z M305.9,244.8l0.7,2.1l2.6,1.6l1.9,0.7
		l4.1-0.8l0.3-1.2l1.9-0.2l2.3-1l0.6,0.4l2.2-0.7l1-1.5l1.6-0.4l5.5,1.9l0.8-0.5l-0.8,0.5l-5.5-1.9l-1.6,0.4l-1,1.5l-2.2,0.7
		l-0.6-0.4l-2.3,1l-1.9,0.2l-0.3,1.2l-4.1,0.8l-1.9-0.7l-2.6-1.6L305.9,244.8L305.9,244.8z M347.3,203.8l-3.5,2l-0.5,3.4l-4.8,2.2h0
		l4.8-2.2l0.5-3.4L347.3,203.8l-0.9-2.6l-5-2.9l-2.5-0.4l-0.9-1.3h0l0.9,1.3l2.5,0.4l5,2.9L347.3,203.8z M370.3,227.2L370.3,227.2
		l-2-0.6h0L370.3,227.2z M364,226.9l-1.5-1.5l0,0L364,226.9L364,226.9z M354.1,246.3l0.2,0.1L354.1,246.3L354.1,246.3L354.1,246.3z
		 M354.5,246l0.7-0.6h0L354.5,246z M333.9,280.6L333.9,280.6L333.9,280.6L333.9,280.6z M334.6,269.5l1.4-1.3l0,0L334.6,269.5
		L334.6,269.5z M337.3,271L337.3,271l1.8,2.6l0,0L337.3,271z M333.6,197.2l-0.8,0L333.6,197.2L333.6,197.2z M312.6,265.9
		L312.6,265.9l-4-0.9L312.6,265.9z M304.9,266.3L304.9,266.3l-1.9-1.4l0,0L304.9,266.3z M318.5,267.2L318.5,267.2L318.5,267.2
		l-2.4-1.4h0L318.5,267.2z M317,260.7L317,260.7l-1.8,0.9l0,0L317,260.7l3.7-1.6h0L317,260.7z M327.7,258.2l2.6-4.3l1.9-4.2l2.9-1.3
		l1.9-1.3h0l-1.9,1.3l-2.9,1.3l-1.9,4.2L327.7,258.2l-3.8,1.1l2.9,2.5l0.8,1.9l3.2,1.5l0.1,0.3l-0.1-0.3l-3.2-1.5l-0.8-1.9l-2.9-2.5
		h0L327.7,258.2z M331.1,279.1L331.1,279.1L331.1,279.1L331.1,279.1z M327.2,279.3l0.2-1L327.2,279.3l-0.1,0.1L327.2,279.3z
		 M325.2,281.2L325.2,281.2L325.2,281.2L325.2,281.2L325.2,281.2L325.2,281.2z M329.4,277.8L329.4,277.8L329.4,277.8L329.4,277.8
		L329.4,277.8z M333.1,283.3L333.1,283.3L333.1,283.3L333.1,283.3z M341,273.1l4,1l7.5,0.3l0,0l-7.5-0.3L341,273.1L341,273.1z
		 M345.8,249.3l1.6-0.9l0,0L345.8,249.3L345.8,249.3z M351,247.8l1-1.5h0L351,247.8L351,247.8z M371.3,222.7L371.3,222.7l2.9-0.2
		L371.3,222.7z M355.1,225.5l3.8,0.1l2,0.9l0,0l-2-0.9L355.1,225.5l-5.6-1.5l-5-0.5l-3.7,0.2l0,0l3.7-0.2l5,0.5L355.1,225.5z
		 M339.9,187.9l4.4,2.2L339.9,187.9l-2.1-0.7L339.9,187.9z M333.4,240.9l1.1,0.4l0,0L333.4,240.9L333.4,240.9l-4.9-2.3h0
		L333.4,240.9z M319.9,240.1L319.9,240.1l-2.7-2.2l0,0L319.9,240.1z M308.1,233l0.7,2l3.6,0.3l2.6,3.1l0.3,0.4l0,0l-0.3-0.4h0
		l-2.6-3.1l-3.6-0.3L308.1,233l-3.4-0.6v0L308.1,233z M306.2,244l-0.2,0.6L306.2,244l-2.3-1.2h0L306.2,244z M301.6,243.1
		L301.6,243.1l-3.8-1.8L301.6,243.1z M291.9,228.4L291.9,228.4l-1.1,1.2l0,0L291.9,228.4z M287.4,230.8L287.4,230.8l-1.7,1.5l0,0
		L287.4,230.8z M264.9,248.7L264.9,248.7l-1,1.4l0,0L264.9,248.7z M257,260.2L257,260.2l2.2,1.3h0L257,260.2z M256.1,250.5l2.3,0.6
		l0,0L256.1,250.5L256.1,250.5z M252.6,230.3l-0.9-5.5L252.6,230.3L252.6,230.3z M251.8,234.6l-0.9,0.1v0L251.8,234.6z M250.5,238.2
		L250.5,238.2l-4.4-2.8h0L250.5,238.2z M253,238.6L253,238.6L253,238.6L253,238.6z M254.4,223.9l1.1-2.3L254.4,223.9l-2.9,0v0H254.4
		z M242.3,227.5l4.4-1.3l0.1,0.1l-0.1-0.1L242.3,227.5L242.3,227.5z M252.8,258.4l2.4-0.9l0,0L252.8,258.4L252.8,258.4z
		 M265.2,260.1l-0.9-1l0,0L265.2,260.1l2.4-0.2v0L265.2,260.1z M268.5,257.4L268.5,257.4l3.8,0.8l0,0L268.5,257.4z M278.3,254.3
		l-0.5,1.2l0,0L278.3,254.3l4.8-1.1l0,0L278.3,254.3z M287.3,249.9l-1-4l0,0L287.3,249.9L287.3,249.9z M289.5,242.2L289.5,242.2
		l-2.9-2.6l-2.6-1.5l-0.7-2.6l-1-1.9l0,0l1,1.9l0.7,2.6l2.6,1.5L289.5,242.2l3.8,2l0,0L289.5,242.2z M297.7,263.4l-1.8-1l0,0
		L297.7,263.4l2,0.1l0,0L297.7,263.4z M322.6,277.3l-0.8-0.8l-1.5-1.1l-0.9,0.6l-1.5,1.4l-0.4,3.4l0,0l0.4-3.4l1.5-1.4l0.9-0.6
		l1.2-0.3l0.5-2.9l-2.7-2.3l1-2.7h0l-1,2.7l2.7,2.3l-0.5,2.9l-1.2,0.3l1.5,1.1L322.6,277.3l1.8,0.7l2,1.2l-0.3,0.4l0,0l0.3-0.4
		l-2-1.2L322.6,277.3z M323.6,280.9l0.3,0.8l0,0L323.6,280.9z M338.9,290.2l0.2,0l0,0L338.9,290.2z M352.4,289.5l-3.9-2.1
		L352.4,289.5l4.6-0.6L352.4,289.5z M358.3,291.1L358.3,291.1L358.3,291.1L358.3,291.1z M366.9,264.4L366.9,264.4l2.2-1h0
		L366.9,264.4z M371.4,258l-3-0.2l-0.6-0.9l0,0l0.6,0.9L371.4,258l1.2-0.5l0,0L371.4,258z M375.4,222.4L375.4,222.4l-2-3.9l-1.5-2
		l0.8-0.6h0l-0.8,0.6l1.5,2L375.4,222.4l1.8,0.2l0,0L375.4,222.4z M378.2,221.2L378.2,221.2l1.5,0.3l0,0L378.2,221.2z M394.5,231.7
		l-0.2-1.2l-2.2-2.7l-4-0.2l-0.7-1.9l0.9-1.3l-3.8-3.4l0,0l3.8,3.4l-0.9,1.3l0.7,1.9l4,0.2l2.2,2.7L394.5,231.7l6.6,2.2l0,0
		L394.5,231.7z"/>
	<polygon class="st1" points="422.7,132.7 422.6,136.3 423.1,136.2 	"/>
	<polygon class="st1" points="273.5,200.2 274.4,202.7 279.5,206.1 281.9,201.2 280.2,198.2 	"/>
	<polygon class="st1" points="161.7,138.6 154.8,138.2 147.5,141.1 142.4,139.6 135.5,142.6 129.6,138.8 123.1,139.6 119.5,143.3 
		128.2,144.6 128.1,146.2 120.3,147.3 129.1,150 124.5,152.5 136.2,154.3 141.8,155.1 145.7,154.1 158.6,150.2 164.7,146 
		160.3,142.2 	"/>
	<polygon class="st1" points="270.2,79 275.9,80.4 272.9,82.1 281.3,85 285.7,84.8 286.6,80.9 289.6,80 290.8,76.6 299.3,74.8 
		286.8,71.5 282,69.9 276.9,70.1 275.9,71.6 270.9,71.6 268.7,70.1 259.4,71.7 262.6,75.2 	"/>
	<path class="st1" d="M248.5,183.5l6.4,3l6-1.4l8.5-6.8l3.3,3.6l0,0l4.2,8.4l4.4,6.7l2,5.7l5.3-0.3l2.2-4.7l5.7,0.5l2-5.5l0.6-10
		l4.6-1.3l3.3-6.6l-4.8-3.3l-3.6-4l2.1-8.1l7.7-4.9l6.1-4.5l-1.2-3.5l3.4-3.9l7-1.5l-1.9-2.2l-1.7-8.4l-7.2-3.7l-5.9-2.7h0l0,0
		l5.9,2.7l7.2,3.7l1.7,8.4l1.9,2.2l6.4,2.6l0.9,2.3l-2.6,1.2l-8.7,6.1l-3.3,3.6l-1.5,3.3l2.9,5.2l-0.1,5.7l4.7,1.9l3.1,3.1l7.1-1.2
		l7.5-2.1l8-0.5l7.9-7.4l3.3-3.3l0.9-2.9l-7.3-3.9l0.9-3.7l-4.9-4.1l1.7-4.8l-6.4-6.3l2.8-4.1l-7.2-3.7l-0.4-3.7l3.2-0.5l6.4-2.2
		l-5.4-3.3l4.8-1.4l-13.6-3.9l-6.9,1.1l-7.3-0.3l-5.1,4.4l-6.7-0.3l-8.5,2.3l-10.1,6.8l-6.4,4l-8.8,10.7l-7.1,7.8l-8.1,5.8
		l-11.2,4.8l-3.9,3.6l1.9,13.4L248.5,183.5z M339.4,124.4L339.4,124.4l0.8-3.8l0,0L339.4,124.4z M295.8,130.1l0.2,0l0,0L295.8,130.1
		z M302.7,127.7l1.8,0.2l0,0L302.7,127.7z M281.2,152L281.2,152l-4.3-0.1l0,0L281.2,152z"/>
	<polygon class="st1" points="304.6,81.8 312.2,79.8 306.6,78.8 304.7,77.1 297.5,78 300.1,79.5 297.9,80.7 	"/>
	<polygon class="st1" points="292.4,70.8 293.3,72.1 303.9,72.8 314,72.3 318.3,69.9 311,68.4 301.9,67.4 298.7,68.6 293.4,67.6 
		283,68.8 287.3,70.8 	"/>
	<polygon class="st1" points="270.2,288.6 271.7,283.8 270.6,278.6 267.4,280.9 266.4,283.2 267.8,287.4 	"/>
	<polygon class="st1" points="297.5,322.6 297.6,322.7 297.9,322.9 298.2,322.8 298.2,322.6 297.9,322.5 	"/>
	<polygon class="st1" points="298.9,323.3 298.4,323.2 298.5,323.8 298.9,324.2 299.4,324.2 299.6,324 299.4,323.8 	"/>
	<polygon class="st1" points="230.2,305.1 230.1,305.3 230,305.5 230,305.7 230.5,305.7 230.9,305.8 231,305.7 231,305.5 
		230.5,305.5 	"/>
	<polygon class="st1" points="229.7,303.1 229.5,303.4 229.5,303.7 229.2,303.8 229.1,304.2 229.2,304.4 230,304.5 230.2,304.1 
		230.5,304.1 231.1,303.4 231.1,303.1 230.8,302.9 	"/>
	<polygon class="st1" points="243.7,296.8 242.7,296.9 242.6,297 242.6,297.4 242.7,297.5 243.3,297.6 244.9,298.3 245,298.3 
		245.1,297.9 245.1,297.8 244.6,297.1 	"/>
	<polygon class="st1" points="240.3,298.7 240,298.6 239.5,298.8 239,298.6 239.1,298.3 239.2,298.1 239.3,298 239.1,297.8 
		239.1,297.7 239.3,297.5 239.1,297.4 237.8,297.8 237.1,298.2 235,299.7 235,300 235.1,300.2 235.5,300.2 235.7,300.6 236.1,300.2 
		236.4,300.1 236.7,300.2 237,300.4 237.1,301 237.2,301.2 237.8,301.3 238.7,301.7 239.1,301.5 239.6,301.2 239.8,300.6 
		240.1,300.1 240.4,299.6 240.7,299.2 240.6,298.8 	"/>
	<polygon class="st1" points="149.7,366.3 149.5,366.7 148.9,366.9 148.1,367.3 147.9,367.6 147.7,368.5 148.1,368.6 148.4,368.2 
		149.3,367.9 149.8,367.6 149.9,366.7 150.1,366.4 149.9,366.1 	"/>
	<polygon class="st1" points="133.2,371.4 132.9,371.5 131.9,371.6 131.4,371.6 131,371.8 131.2,372.1 131.6,373.1 132.3,374 
		132.9,373.8 133.2,373.6 133.6,373 134.1,371.6 135.3,370.6 135.3,370.3 134.3,370.4 	"/>
	<polygon class="st1" points="124.7,375.5 124.1,375.5 124.2,375.7 124.3,375.9 125,376.3 125.6,375.2 125.4,375 	"/>
	<polygon class="st1" points="129.3,372.7 129.1,372.7 128.9,372.9 128.7,373.3 129,373.8 129.2,373.9 129.4,373.9 129.9,373.5 
		129.9,373.3 129.8,373 	"/>
	<polygon class="st1" points="126.6,369 126.3,368.6 125.6,368.6 125.2,369.2 125.8,370.4 125.9,370.9 126,370.9 126.5,370.4 
		126.6,370.1 126.5,369.6 126.7,369.4 	"/>
	<polygon class="st1" points="147.5,369.3 147.1,369.3 146.8,369.5 146.7,370.1 146,371.4 145.5,372.6 144.8,373.2 144.1,373.4 
		144.2,373.5 144.9,373.6 145.7,372.9 147.2,372.4 147.5,371.4 147.8,370.3 147.8,369.6 147.6,369.3 	"/>
	<polygon class="st1" points="139.1,373.1 139.1,373 139,373 138.9,373.1 137.6,373 137.4,373.6 136.9,374 136.9,374.7 137.4,375.4 
		137.7,375.5 138.2,375.6 138.9,375.2 139.1,374.8 139.2,374 139.1,373.6 	"/>
	<polygon class="st1" points="359,327.2 355.1,326.7 351,327.1 347.9,324.9 347.1,327.7 353.7,328.9 353.7,330 361.3,329.4 
		361.8,327.5 359,328.3 	"/>
</g>
</svg>
