<?xml version="1.0" encoding="utf-8"?>
<!-- Generator: Adobe Illustrator 22.0.0, SVG Export Plug-In . SVG Version: 6.00 Build 0)  -->
<svg version="1.1" id="Capa_1" xmlns="http://www.w3.org/2000/svg" xmlns:xlink="http://www.w3.org/1999/xlink" x="0px" y="0px"
	 viewBox="0 0 1366 768" style="enable-background:new 0 0 1366 768;" xml:space="preserve">
<style type="text/css">
	.st0{fill:#A06D6D;}
</style>
<path id="MV" inkscape:connector-curvature="0" class="st0" d="M357.1,250.6L357.1,250.6l0.1-0.3l-0.1-0.1H357l-0.1,0.2v0.1v0.1
	H357.1z M357.4,244.7l0.1-0.2v-0.1v-0.1v-0.1v-0.1l-0.1,0.1l-0.1,0.2v0.1l-0.1,0.1v0.1H357.4L357.4,244.7z"/>
<path id="SC" inkscape:connector-curvature="0" class="st0" d="M256.5,301l-0.5-0.8l-0.4,0.3l0.2,0.3l0.3,0.2l0.1,0.4l0.3,0.2V301
	L256.5,301z"/>
<g>
	<polygon class="st0" points="777.3,444.6 779,440.7 780.1,437 780.1,431.9 777.3,426.8 775.4,424.3 772.5,420.4 773.2,413.7 
		771.7,414.7 770.1,411.9 767.6,413.3 767,406.4 764.8,402.4 765.8,400.9 762.7,398.1 759.5,395.1 754.2,391.8 753.3,387.5 
		754.6,384.2 754.2,378.7 752.9,378 752.7,374.8 752.5,369.3 753.6,366.5 751.3,364 749.9,361.3 746,363.7 744.8,358.7 745.3,356.4 
		745.4,352.8 743.8,349.6 743.9,346.9 742.6,346.1 742.7,342.2 741.5,339 739.2,341.4 738.8,343.2 737.3,346.7 735.5,350.1 
		736.1,352.2 734.9,353.5 733.4,358.3 733.5,362 732.8,363.8 733.1,366.9 730.5,371.9 729.2,375.4 727.5,378.3 725.8,381.7 
		721.7,383.8 716.8,381.7 716.3,379.7 713.8,378.1 712.2,378.1 708.9,374.3 706.4,372.1 702.5,370.1 698.6,366.6 698.5,364.8 
		701,361.7 703.1,358.5 702.8,355.9 704.7,355.7 707.2,353.2 709.2,349.8 707,346.6 705.5,347.8 703.5,347.3 700,349.1 696.8,347.1 
		695.1,347.8 690.6,346.2 687.9,343.5 684.4,342 681.3,342.9 685.2,345 684.9,348.2 680.1,349.4 677.3,348.7 673.7,350.9 
		670.8,354.6 671.4,356.1 668.7,357.8 665.3,362.9 665.9,366.4 662.5,365.8 659,365.8 656.5,362 652.8,359.1 650,359.9 647.4,360.8 
		647.1,362.4 644.7,361.7 644.4,363.5 641.4,364.6 639.7,367.1 636.2,370.2 634.8,375 632.5,373.7 630.3,376.8 631.8,379.8 
		629.2,381 627.8,375.5 623,380.9 622.2,384.4 621.5,386.9 617.7,390.2 615.7,393.6 612.2,396.4 606.1,398.3 603,398.1 601.5,398.7 
		600.4,400.1 596.9,400.8 592.2,403.2 590.8,402.4 588.2,402.9 583.6,405.2 580.4,407.9 575.6,410 572.5,414.4 572.9,409.6 
		569.8,414.2 569.7,417.9 568.4,421.1 566.9,422.6 565.6,426.3 566.5,428.2 566.6,430.2 568.2,435.2 567.5,438.5 566.5,436 
		564.2,434.2 564.6,440.1 562.9,437.3 563,440.1 564.8,445.1 564.2,450.1 565.9,452.6 565.5,454.5 566.4,458.6 565.1,462.2 
		564.8,465.8 565.5,472.3 564.8,476 562.6,480.4 562,482.7 560.5,484.2 557.6,485 556.1,488.7 558.5,489.9 562.5,494 566.1,494 
		569.9,494.3 573.2,492.2 576.6,490.4 578,490.7 582.5,487.3 586.3,487 590.4,486.3 594.6,487.5 598.2,486.9 602.8,486.7 
		605.8,484.1 608.1,480.8 613.3,479.3 620.2,476.1 625.2,476.5 632.1,474.4 639.9,472.1 649.7,471.5 653.7,474.6 657.4,474.8 
		662.7,478.6 661.1,480.1 662.9,482.5 664.2,487.1 662.6,490.5 665.5,493.1 669.8,488 674.1,485.9 680.8,480.4 679.2,485.1 
		675.8,488.3 673.3,492 668.9,495.5 674.1,494.3 678.8,489.9 677.9,494.7 674.7,497.8 679.4,498.6 680.7,501.2 680.3,504.5 
		678.8,509.4 680.2,513.4 684.2,515.3 687,515.7 689.4,516.7 692.9,518.5 700.1,513.8 703.6,512.6 700.9,516 703.5,517.1 
		706.2,519.9 710.9,517.2 714.7,514.7 721,512 727,511.8 731.2,509.5 732.1,507.5 735.1,503 739,498.2 742.6,495 747,489.4 
		750.3,486.3 754.7,481.3 760.1,478.2 765.1,472.4 768.2,467.9 769.6,464.3 773.4,458.6 775.5,455.7 778,450 	"/>
	<polygon class="st0" points="701.7,532.3 698.3,533.2 694.7,531 691.7,530.5 689.8,533.4 689.2,538.8 687.1,542.8 686.6,548.1 
		689.6,548.3 690.4,548.6 697,544.3 697.6,546 701.6,541.1 704.8,538.9 709.3,531.6 706.5,531.1 	"/>
	<polygon class="st0" points="941,375.4 939.1,375.7 936,377 936.2,379.4 940.1,378.1 944,376.5 944.7,373.4 	"/>
	<polygon class="st0" points="932.1,382.5 929.8,381.7 927.1,383.9 926.9,386.7 929.8,387.5 933.4,386.6 935.2,383.3 933.7,381.5 	
		"/>
	<polygon class="st0" points="836.6,531.8 837.5,529.2 831.7,532.1 828.3,535.5 825.1,537.1 819.2,541.7 813.6,544.9 806.6,548.1 
		801.1,550.5 796.8,551.6 785.5,557.7 779.1,562.3 778,564.6 783.1,565 784.6,567.1 789.1,567.2 793.1,565.4 799.4,562.6 
		807.5,556.4 812.2,552.3 818.4,550 822.4,549.9 823,547 827.6,544.5 834.6,540 838.8,537.1 840.9,534.5 841.4,531.9 835.8,534.4 	
		"/>
	<polygon class="st0" points="872.9,513 869.7,512.5 866.8,510.4 869.1,505.5 867.9,503.7 865,508.1 865.4,501.3 867.3,495.6 
		864.2,493.9 863.4,490.3 861.1,490.8 860.7,495.4 861.5,501.1 862.4,503.8 861.5,504.9 860.9,509.3 858.5,513.4 854.3,518.4 
		849,520.6 847.3,523 851,525.5 850.2,529 843.3,534.1 844.7,535 844.3,536.6 850.2,534.1 856.1,529.9 860.6,526.5 862.2,525.3 
		863.7,522.6 866.5,520.6 870.3,520.8 874.5,517 879.6,511.3 877.5,510.5 	"/>
	<polygon class="st0" points="734.3,329.2 740,329.4 743.1,330.5 747.7,328.3 747.4,323.6 751,321.5 755.9,319.7 762.9,322.5 
		765.3,328.1 768.2,331.6 772.1,335.6 777.6,336.6 782.4,337.3 783.5,338.9 787.3,338.5 788.1,336.7 782.5,334 784.3,332.8 
		780.1,331.7 780.6,328.9 777.4,329.1 774.4,322.3 769.7,318.2 768.8,313.9 774,313.2 772.9,309.9 763.8,305.9 763.2,302.2 
		760.3,299 756.6,295.7 746.4,292.1 736.8,287.7 735.8,308.4 	"/>
	<polygon class="st0" points="798.1,293.2 800.5,295.3 801.7,297.7 802.5,301.5 804.4,299.8 803.9,296.5 801.9,294.4 799.8,291.8 
		797.5,290.3 795.6,288.9 792.7,287.1 791.1,288.6 795,290.5 	"/>
	<polygon class="st0" points="814.9,312.7 817.1,315.2 818.7,314.6 819.6,312.8 817.2,310.6 814.7,306.6 813.1,305.1 812.6,303.2 
		811.8,303.9 812.7,308.7 	"/>
	<polygon class="st0" points="784.4,311.4 787.3,311.4 790.3,309.9 793.5,308.3 794.5,306.5 797.5,306 799.6,302.1 800,298.6 
		798.9,297.6 795.5,297.7 795.9,301.4 792.6,303.7 790.9,305.9 787.7,306.4 787.3,303 786.5,303.1 785.5,306.2 782.4,306.7 
		777.4,305.8 776.8,307.7 779.9,309.5 	"/>
	<polygon class="st0" points="873.3,374 874.6,376.8 876.6,375.9 873.9,372.3 	"/>
	<polygon class="st0" points="873.1,370.5 874.4,371.3 874.6,366.2 872.3,364.2 871.4,369.1 871.9,370.9 	"/>
	<polygon class="st0" points="869.2,408.6 869.3,408.9 869.5,408.9 870.2,408.7 870.5,407.6 870.1,407.6 869.9,407.5 869.8,407.1 
		869.9,406.9 869.5,407.1 868.9,407.3 869,408.1 868.9,408.5 	"/>
	<polygon class="st0" points="865.3,404.3 865.4,404.8 865.6,405.2 866.3,405.4 866.6,405.8 866.9,405.8 867.2,405.3 867.3,405.1 
		867.1,404.4 866.8,404.1 867.1,403.1 867,402.9 866.6,402.7 865.7,403 865.6,403.2 866.1,403.3 866.3,403.5 865.8,404.2 	"/>
	<polygon class="st0" points="863.3,402.6 863.6,402.2 863.5,402.1 863.5,401.8 863.7,401.4 864,401.3 863.8,401.1 863.6,401 
		863.6,401.3 863.3,402 863.2,402.3 862.7,402.9 863,402.9 	"/>
	<polygon class="st0" points="828.6,394.2 828.7,394 828.9,393.6 829,392.8 828.8,393.2 	"/>
	<polygon class="st0" points="865.1,415.3 865.3,415.1 865.3,414.8 864.9,414.6 864.7,415.1 864.7,415.2 864.9,415.3 	"/>
	<polygon class="st0" points="851.3,400.4 850.7,400 850.1,399.3 850,399.5 849.9,399.9 849.9,400.2 850.2,400.4 850.3,400.6 
		850.2,401.1 850.2,401.5 850.8,402.4 850.9,403.1 851.2,403.7 851.7,404.2 852.1,404.7 852.9,406.1 853.1,406.6 853.5,406.9 
		854.5,408.1 854.9,408.5 855.3,408.7 856.2,409.4 856.8,409.7 857.1,410.2 857.7,410.5 858.5,410.9 858.6,411.1 858.6,411.4 
		858.7,411.7 859.2,412.1 859.8,412.4 859.9,412.6 860,412.8 860.3,412.7 860.6,412.8 861.5,413.5 861.9,413.4 862.2,413.4 
		862.7,413.2 863,412.8 862.9,411.7 862.4,411.2 861.7,410.8 861.3,410.3 860.9,409.8 860.1,408.8 859,407.8 858.5,407.6 
		858.2,407.2 857.9,407.1 857.7,406.8 857.2,406.5 856.9,405.9 856.3,405.3 856.2,405 856.3,404.7 856.2,404.4 855.8,404.1 
		855.6,403.6 855.4,403.3 855,403.1 854.3,402.7 852.7,400.8 852,400.2 	"/>
	<polygon class="st0" points="882.8,274.3 882.7,274.5 882.8,274.6 882.9,274.7 883,274.5 883,274.3 882.9,274.3 	"/>
	<polygon class="st0" points="830.4,327.3 830.6,327.3 830.9,327.1 830.8,326.9 830.7,326.4 830.3,327.1 	"/>
	<polygon class="st0" points="835.8,328.4 835.6,328.4 835.3,328.6 835.1,328.9 835.2,329.1 835.6,329.1 835.9,329.2 836.2,329 
		836.2,328.6 835.9,328.6 	"/>
	<polygon class="st0" points="829,325.8 828.9,326.3 829.1,326.7 829.5,326.9 830.1,326.4 830.1,326.2 830.1,326 829.9,325.9 
		830.3,325.6 830.2,325.5 829.6,325.3 829.4,325.5 829.2,325.6 829.1,325.7 	"/>
	<polygon class="st0" points="827.1,321.8 826.8,322 826.2,322.7 826,323.1 825.5,323.4 825.4,323.7 825.4,324.1 825.8,324.2 
		826.1,323.8 827,323.7 827.3,323.8 827.3,324.2 827.4,324.9 827.7,325.2 828.2,325.4 828.6,326 828.7,325.7 828.9,325.7 
		829.1,325.3 828.8,324.1 828.5,323.6 827.9,323.4 827.7,323.1 827.7,322.1 	"/>
	<polygon class="st0" points="838.6,324.5 838.4,324.6 838.3,324.9 838.4,325.1 838.8,325.4 839.1,325.3 838.9,324.9 838.9,324.7 	
		"/>
	<polygon class="st0" points="846.9,336.1 846.8,336.6 846.8,336.9 847.4,336.9 847.8,337.1 847.8,337.7 848,337.9 848,338.4 
		849.2,339.3 849.9,339.7 850.6,339.8 851,340 851.5,339.9 852,340.1 852.4,340 852,339.7 852,339.3 851.5,338 851.2,337.7 
		850.7,337.8 850.2,337.6 849.8,337.6 849.1,337.3 849,337.1 848.8,337 847.9,336.3 847.4,336.1 	"/>
	<polygon class="st0" points="844.5,326 844.9,328.2 845.3,329.4 846.1,330.2 846.1,330.4 846.9,330.9 847.5,332.2 847.7,332.3 
		847.8,332.1 847.8,331.5 847.3,330.4 847.4,329.6 847.2,329.3 847.2,329 847,328.2 846.4,327.5 846.1,327.4 845.9,327.1 
		846.1,326.5 846.3,326.3 846.4,326 845.1,324.1 844.9,324.1 844.8,324.2 844.6,324.2 844.3,324.2 844.2,324.4 844.8,325.5 	"/>
	<polygon class="st0" points="827.1,326.5 826.9,326.5 826.4,326.6 826.5,326.7 827.1,327 827.4,327.1 827.5,326.9 827.4,326.7 	"/>
	<polygon class="st0" points="833.3,319.8 833.4,320.5 833.9,320.9 834.4,321.5 834.6,321.6 834.8,321.8 835.2,322.3 836,322.7 
		836.8,323.3 837.1,323.4 837.4,323.7 838.9,324.4 839.4,325.1 840.1,325.5 840,325 839.7,324.6 840.1,324.1 837.9,322.2 837.6,322 
		837.2,321.9 836.7,321.5 836.2,321.4 835.7,321 835.5,320.7 834.9,320.3 834.3,319.5 832.8,319.2 832.9,319.4 	"/>
	<polygon class="st0" points="841.8,329.2 841.9,329.5 842.1,329.4 842.5,329.6 842.7,329.3 842.3,328.8 841.9,328.5 841.8,328.5 
		841.5,328.4 841,328.6 841,328.9 841.4,329 	"/>
	<polygon class="st0" points="822.2,321.2 822.4,321.3 822.5,321.7 822.6,321.6 822.8,321.3 823.3,320.6 823.4,320.3 822.9,320.1 
		822.5,319.6 822.1,319.4 821.8,319.8 821.8,320.2 822.3,320.8 	"/>
	<polygon class="st0" points="817.4,316.3 817.8,316.5 818.3,316.3 818.5,316 817.8,315.5 817.6,315.8 	"/>
	<polygon class="st0" points="843.9,334.2 844.4,334 844.5,333.9 844.4,333.3 844.2,333 843.8,332.8 843.6,332.2 843.1,331.8 
		842.2,331.1 840.6,331.1 840,331.2 838.9,330.2 838.6,330.1 838.2,330.4 838.1,330.7 838,331.4 838,331.8 838.3,332.5 838.6,333 
		838.9,333.3 839.1,333.5 840,333.6 841.7,333.7 842.6,334.1 843.5,334.3 	"/>
	<polygon class="st0" points="876.6,345.5 877.1,345.4 876.9,345.2 876.8,344.8 876.5,344.8 876.2,344.9 876.4,345.5 	"/>
	<polygon class="st0" points="840.9,345.6 839,344.3 838.6,344.2 838.5,344.3 838.4,344.6 838.5,344.8 839,344.9 839,345 
		839.3,345.2 840,345.4 840.4,345.7 840.5,346.2 840.8,346.3 841.1,346.4 841.5,346.2 841.4,346 	"/>
	<polygon class="st0" points="871.9,340.1 872.1,340.2 872.6,339.7 872.9,339.7 873,339.7 873.5,339.6 873.7,339.2 873.5,339.1 
		873,339 872.3,339.1 872,339.3 871.8,339.6 871.6,339.6 871.6,339.8 871.7,340.2 	"/>
	<polygon class="st0" points="847.9,332.8 848.1,333 848.3,332.8 848.7,333.3 848.7,333.1 848.7,332.4 848.1,330.8 847.9,330.7 
		848,331.3 848.1,331.7 848,332.2 	"/>
	<polygon class="st0" points="823.2,315.1 824.3,316.8 825.3,317.8 826.1,317.9 826.5,317.9 826.5,318 826.6,318.2 827.1,318.4 
		827.6,318 827.4,317.8 827,317.7 826.6,317.5 825.9,316.7 825.7,316.4 825.5,315.4 825.1,315 823.7,314.2 822.9,313.4 822.2,313.2 
		822,313.4 822,313.9 822.2,314.2 	"/>
	<polygon class="st0" points="825.4,322.2 825.4,321.7 825.2,321.3 825,321.1 824.5,321.2 824.1,321.7 824.1,322.2 824.5,322.8 
		825.2,322.8 825.4,322.6 	"/>
	<polygon class="st0" points="822.1,322.7 822,321.8 821.8,321.9 821.8,322.1 821.7,322.5 822,323.2 	"/>
	<polygon class="st0" points="826.1,325.6 826.3,325.1 826.2,324.7 826,324.8 825.3,325.4 825.2,325.7 825.8,326.5 826.1,326.6 
		825.8,326.2 825.9,325.7 	"/>
	<polygon class="st0" points="632.2,326.2 633.3,322.7 628.1,325 624.3,325.5 620.9,323.6 616.4,324.9 616.2,327.2 623.6,328 	"/>
	<path class="st0" d="M560.4,279.5l2.8,1.8l0.7,8.5l4.6,0.8l3.6-0.4l2,3.1l6.7-2.3l2.8,2l4,0.4l2,3.9l6.5-2.9l0.8,2.3l2.5-9.7
		l0.3-6.4l5.5-4.3l-0.2-5.8l1.8-4.3l6.7-0.8l-6.5-5.9l0.9-2.9l-4.3-6l3-5.8l4-2.1l-1.2-3.1l3.8-0.4l0.3-2.4l-4.8-2l-3.8-1.7
		l-0.4-2.8l-3.1-3.2h-2.3l-2.5,5l-4.1,4.4l-0.1,3.1l-0.1,4.1h0l0.1-4.1l0.1-3.1l-4.6,3.5l-2.1,2.4l0,0l-2.6,4l-3.8,5l-6.7,1.4
		l-2.4,1.2l-0.9,5.4l-4.4,1.2l-4.1-2.2l-3.3,4.2l-0.6,5.9l0.8,5.6L560.4,279.5z M589.6,243.5L589.6,243.5l-1.1,2.2l0,0L589.6,243.5z
		"/>
	<polygon class="st0" points="607.1,324.4 605.2,322.7 603.6,324.9 600.5,325 598.3,328.6 601.3,328.7 605.2,327.8 611.8,326.6 
		610.6,323.8 	"/>
	<polygon class="st0" points="619.9,336.3 620.4,334.6 618.6,332.7 615.8,330.7 610.5,332 617.5,336.4 	"/>
	<polygon class="st0" points="663,292.8 666.9,293 670.1,292.6 674.7,293.1 679.4,295.7 677.5,290.8 671.4,289 664.5,289.3 	"/>
	<polygon class="st0" points="664.6,276.9 666.2,276.1 663.9,272.8 664.8,268.9 667.7,269.5 667.9,264 667.3,261.4 664,260.8 
		663.5,257.3 661.7,259.6 660.7,264.7 662.4,272.9 	"/>
	<polygon class="st0" points="685.5,281.5 687.6,285.2 695.9,285.3 696.3,286.9 692.3,286.8 686.1,289.1 690.3,292.2 690.2,295 
		691.4,297.3 693.5,296.8 695.3,293.7 703.5,299.6 708.1,300.1 718.7,305.5 721,310.8 722,317.7 718.3,319.5 715.5,324.7 
		722.6,324.5 724.2,322.7 729.7,324 734.3,329.2 735.8,308.4 736.8,287.7 730.8,286.5 726.7,284.2 722,282 717,282 710.4,285.8 
		705.5,292.6 699.8,288.8 698.5,278.5 697.7,276.1 688.7,273.5 685.8,275.6 678.2,277.1 680.5,280.3 	"/>
	<polygon class="st0" points="613.5,293.3 615.8,293.4 616.4,299.5 614.5,305.4 616.8,307.3 620.4,306.3 620.7,297.2 620.5,289.8 
		624.3,287.9 623.6,294.1 627.5,297.8 626.7,300.3 628,302 633.6,299.6 630.6,304.8 632.7,307 635.8,305.1 636.1,301 631.4,293.6 
		632.5,291.4 627.4,283.3 632.4,280.8 635,277.1 637.4,278 637.9,275.1 627.4,277.2 624.3,280.1 619.3,274.5 620.2,269.7 
		625.1,268.7 634.4,268.4 639.8,269.7 644.1,268.4 648.5,262.1 647.5,260.7 642,265.3 635.5,265.6 628.4,264.7 624,262.8 
		619.3,267.6 618.1,270.2 615.2,279.8 614.3,284.8 611.9,289 	"/>
	<polygon class="st0" points="696.9,310.2 697.2,315 700.4,310.7 700.6,307.7 699.4,305.8 698.1,308 	"/>
	<polygon class="st0" points="657.2,295.3 659.4,293.2 658,291.1 652.3,291.4 653.3,294.1 	"/>
	<polygon class="st0" points="644.4,327.7 638.7,330.3 635.9,334.2 635.2,336.3 635.8,337.1 640.8,335.7 644.8,330.9 649.7,329.1 
		655.7,326.3 657.9,324.6 655.9,323.8 654.1,324.6 650.1,324.8 645.2,326.2 	"/>
</g>
</svg>
